<svg version="1" xmlns="http://www.w3.org/2000/svg" width="1365.333" height="1365.333" viewBox="0 0 1024.000000 1024.000000"><path d="M477.4 21.1c-.4.7-.3.9.2.6.6-.3 1.6-.2 2.4.4 1.3.7 1.2.9-.2.9-1 0-1.8.5-1.8 1 0 .7.7.7 2 0 1.1-.6 2.6-.8 3.2-.4.7.5.9.2.4-.7-.4-.8 0-.5.8.5.9 1.1 1.6 1.4 1.6.7s.5-.9 1.2-.5c.7.5.8.3.3-.6-.6-.9-.4-1.1.5-.5 1 .6 1 1.1-.3 2-.9.7-1.3 1.6-.9 2 .4.4-.4.1-1.8-.8-1.6-1-3.2-1.2-4.5-.7-1.2.5-1.4.9-.6.9.8.1 1.1.4.8.7-.4.4-1.4.1-2.3-.6-1.2-1.1-1.7-1.1-2.3-.1-.6 1-1 .9-1.4-.4-.4-.9-.3-1.3.2-1 .5.3 1.3 0 1.7-.6.5-.8.3-.9-.6-.4-.9.6-1.2.4-.8-.6.4-1.1-.1-1.5-1.8-1.5-1.3 0-2.4.4-2.4.9s.7.7 1.5.3c1-.4 1.4 0 1.2 1.4-.2 1.1-.7 2.3-1.2 2.7-.4.5-.5.3-.2-.3.4-.7 0-1.5-.9-1.8-.9-.4-1.3-.2-.8.5.4.7.1 1-.7.7-.8-.3-1.3-1.5-1.3-2.7.1-1.2-.1-1.9-.5-1.6-.3.4-.6 1.5-.6 2.6 0 1-.2 1.8-.5 1.7-.3-.1-1.6.4-3 1.1l-2.5 1.2 2.5-2 2.5-2.1-2.6.9c-1.5.5-3 .7-3.5.3-.4-.4-.4-.2-.1.4 1 1.7-1.9 2.5-3.2 1-.6-.7-.8-1.6-.4-1.9.3-.4.4-.7.1-.7-.3 0-1.2.8-1.9 1.7-.8.9-.9 1.4-.3 1 .6-.3 1.1 0 1.1.8 0 1.1-.4 1.2-1.3.4-.7-.6-1.8-.8-2.4-.4-1.8 1.1-5 1.4-5 .4 0-.5.7-.9 1.6-.7 1 .2 1.8-.3 2-1 .1-.7 0-.8-.3-.2-.3.8-.9.8-1.8 0-1-.8-1.5-.6-2 .9-.6 1.9-3 2.1-5.8.5-.8-.5-.7-.2.2.9.8 1 1.1 2 .7 2.4-.3.3-.6.1-.6-.5 0-.7-.7-1.2-1.6-1.2-.8 0-1.2.4-.9 1 .4.6-.1.7-1.1.3-1.3-.5-1.5-.3-.9.7.5.9.4 1.1-.4.6-.8-.6-.9-1.2-.2-2 .8-.9.7-1.3-.4-1.3-.8 0-1.2.4-.9.9.3.4 0 .8-.6.8s-.9.4-.5.9c1.2 2.1-1.5 2-2.9-.1-1.5-2.1-1.6-2.1-1.7-.3-.1 1.1-.1 2.4 0 2.8.1.5-.3.6-.9.2-.6-.3-.8-1.1-.5-1.6.9-1.3-.9-1.1-2.4.3-1.1 1-1.3 1-.7 0 .4-.6.2-1.2-.3-1.2-.6 0-1.1.6-1.1 1.2 0 .9-.3.9-.9-.1-.8-1.2-1.2-1.2-2.4-.2-1.3 1-1.7.9-2.6-.6-.6-1.1-1.1-1.3-1.1-.5 0 .7-.4 1.1-.8.8-.5-.3-.9.1-.9.9 0 1.1.4 1.2 1.4.4 2.1-1.8 1.5-.1-.9 2.3-1.6 1.6-2 1.7-1.5.5.7-2-.4-2.2-2.1-.5-1.7 1.7-4.5 1.9-5.4.5-.6-.9-.8-.8-.8.3 0 1.3-.1 1.3-1 0-.8-1.3-1-1.3-1 .1 0 1.2-.7 1.5-2.4 1.2-1.3-.3-2.7 0-3 .6-1.2 1.8-2.6 1.2-2.7-1.2-.1-2.1-.1-2.1-.8.3-.8 2.9-2.8 3.3-5.3 1.2-1-.9-1.8-1-1.8-.4s.5 1.2 1.1 1.4c.7.2.6.8-.4 1.6-1.2 1-1.7 1-2.3.1-.5-.8-.3-.9.6-.4.9.5 1.1.4.6-.4-.4-.6-1.2-.9-1.7-.5-.5.3-.6 1-.3 1.6.5.8.1.9-1 .5-1.4-.6-1.7-.3-1.2 1 .5 1.6.4 1.6-.6.2-1-1.5-1.3-1.5-3 .5-1.2 1.4-1.7 1.6-1.6.6.2-.8-.3-1.4-.9-1.3-.7.2-1.3-.2-1.3-.9 0-.6-.3-.8-.6-.5-.4.4-.1 1.5.7 2.4.7 1 .9 1.5.5 1.1-.5-.4-1.5-.3-2.2.2-.8.8-1.7.6-2.8-.5-1.5-1.5-1.6-1.5-1.6.5 0 1.8-.3 1.9-2 1-1.6-.9-2.4-.6-4.2 1.5-1.2 1.4-2.6 2.5-3.2 2.5-.5 0-.2-.6.9-1.3 1.4-1.1 1.5-1.6.5-2.2-.9-.5-1.1-.4-.6.3 1 1.6-.7 1.5-2.3-.1-1-1-1.1-.8-.5.7.5 1.4.4 1.7-.5 1.2-1.3-.8-1.1 1.5.2 2.5.5.3.2.9-.7 1.2-.9.4-1.5.3-1.5-.1.3-2.1-.3-3.1-2-2.9-1.1 0-1.7.5-1.5.9.3.5 1 .6 1.5.3s.6.1.3.9c-.8 2-2 2-2.8.1-.5-1.3-.9-1.4-2.8-.3-1.3.7-2.6 1.2-3 1.3-.3 0-1 .3-1.4.7-.4.4-1.4.2-2.2-.5-1.3-.9-1.4-.9-.8 0 .4.7.2 1.3-.3 1.3-.6 0-1.1.5-1.1 1.1 0 .8.4.8 1.4 0 1-.9 1.7-.7 2.7.6 1.3 1.6 1.2 1.7-.3.4-1.7-1.3-2.3-.8-1.8 1.4.1.5-.4.5-1.1-.2-.9-.9-1.8-.9-3.3-.1-1.7.9-1.9.8-.8-.3.6-.7 1.2-1.8 1.2-2.3 0-.6-.7-.1-1.5 1.1-1 1.4-2.3 2-3.6 1.8-2.3-.5-6.9 2.1-6.9 3.8 0 .5 1 .2 2.3-.9l2.2-1.9-1.9 2.2c-1 1.3-2.2 2-2.6 1.8-.4-.3-2 .5-3.6 1.7-1.5 1.3-2.5 1.7-2 1 .4-.6.3-1.2-.3-1.2s-.8-.8-.5-1.8c.5-1.6.5-1.6-.6.1-.6.9-.8 2.2-.5 2.7.3.6-.1.7-.9.4-.9-.3-1.3-1.1-.9-1.7.4-.6.1-.7-.6-.3-.7.5-1 1.4-.7 2.2.3.9-.2 1.4-1.4 1.4-1.1 0-2-.5-2-1.2 0-.6-.3-.8-.6-.5-.4.4-.1 1.4.7 2.3 1.3 1.6 1.2 1.6-1.1.4-2.2-1.2-2.4-1.2-1.2.3 1.1 1.3 1 1.5-.8 1-1.1-.3-2.3-1-2.6-1.5-.8-1.3-3.4 1.1-2.8 2.7.3.7 0 1.6-.7 2.1-.8.4-1 .3-.5-.4.4-.7.2-1.2-.3-1.2-.6 0-1.1.4-1.1 1 0 .5-.5 1-1.1 1-.5 0-.8-.4-.4-.9.3-.5.1-1.3-.5-1.6-.6-.4-1-.3-.9.2.4 2.1-.3 3.1-2.8 4.2-2.2 1-2.5 1-1.5-.2.9-1 .9-1.4-.1-1.4-.7 0-1.4.9-1.4 2-.1 1.1-.7 2.5-1.4 3.1-.9.8-1 .8-.5-.2.9-1.5-2-1.6-3 0-.5.7-.3.8.7.3 1.2-.8 1.2-.6 0 .8-.7.9-1.7 1.4-2.2 1.1-1.9-1.2-4.8-1.2-4.6-.1.1.7-.4 1.1-1.2.9-1.2-.3-1.2-.1 0 1.4 1.3 1.6 1.2 1.6-.7.6-1.7-.9-2.4-.9-3.4.3-.7.8-1.6 1.3-2 1-.5-.3-1.2 0-1.6.6-.4.8-.3.9.4.5s1.2-.2 1.2.5-1 .9-2.5.7c-1.9-.4-2.3-.2-1.5.7.7.9.6 1.6-.3 2.4-1.7 1.4-2.8.4-1.9-1.7.5-1.4.4-1.5-1-.2-.9.8-1.4 1.8-1.1 2.2.2.5-.7.8-2.1.8-1.4 0-2.6.5-2.6 1.1 0 .5.6.7 1.3.3.8-.5.8-.2-.2.9-1.5 1.8-2.6 2.3-1.6.7.3-.6.1-1-.5-1s-.8-.5-.4-1.2c.4-.6.3-.8-.4-.4-.6.3-.9 1.5-.7 2.6.3 1.8.1 1.9-1.7.9-1.8-1-2-.9-1.4.6.6 1.6.4 1.6-1 .4-1.5-1.2-1.6-1.1-1 .9.4 1.2.4 2.2-.1 2.1-2.3-.4-5.1.3-6.9 1.7-1.8 1.4-1.8 1.5.4.4 1.3-.7 2.6-.9 3-.6.3.3 0 .6-.7.6s-1 .4-.7.8c.3.4-1.4.8-3.7.8-3.5.1-4.1.4-3.9 1.9.3 1.6.1 1.7-1.1.6-1.2-1-1.5-1-1.3.1.1.7.5 2 1 2.8.7 1.2.6 1.3-.5.2-1.8-1.6-3.2-1.5-2.6.2.4 1 .1 1.3-.8.9-.8-.3-1.2-1-.8-1.7.3-.6-.6 0-2.1 1.4-1.4 1.3-2.5 2.9-2.2 3.6.2.6-.5 1.1-1.7 1.1-4.9.1-5 .2-3.6 2 .7 1 .9 1.5.5 1.1-.5-.4-1.4 0-2.1.9-.9 1.3-1.4 1.3-2 .3-.6-.9-.4-1.1.5-.5.9.5 1.1.4.6-.4-.6-.9-1.1-.9-2.2 0-1.5 1.2-1.9 2.3-.6 1.5.5-.3.9.1.9.9 0 1-.5 1.1-1.9.4-1.8-1-1.9-.9-2.2 1.3 0 .7-1 1.4-2.1 1.7-1.1.2-3.6 1.6-5.6 3.2-2 1.6-3.9 2.5-4.3 2.2-.4-.4-.4 0 0 1 .6 1.7.7 1.7 2 0 .7-1 1.4-1.3 1.4-.6 0 1.5-1.9 2.7-4.5 2.8-1.3 0-1.9.6-1.9 1.7.1 1-.2 1.8-.7 1.8-.5 0-.9-.5-.9-1 0-.6-.4-1-.9-1s-.8 1.1-.7 2.4c.3 2-.1 2.3-2.5 2.1-2-.2-2.6.1-2.2 1.1.3.8 1 1.1 1.6.7.6-.3.7-.1.3.5-.5.9-1.3.9-2.6.2-1.5-.8-1.8-.7-1.4.3.3.9-.8 2.2-3.2 3.4-2.1 1.1-4 2.6-4.2 3.4-.3 1.1-.1 1.1.8-.1.8-1 1-1.1.8-.2-.2.8-.7 1.2-1 1-.4-.2-1.4.6-2.3 1.7-.9 1.1-1.4 1.4-1 .7.3-.6.1-1.2-.4-1.2-.6 0-1.1.9-1.1 2.1 0 1.5-.4 1.9-1.6 1.5-1.5-.6-1.5-.4-.3 1 1.3 1.6 1.2 1.6-.9.5-2.3-1.2-2.6-.9-2.2 2.4.2 1.7 0 1.8-1.6.5-1.1-.9-1.5-1-1-.3.4.7.2 1.3-.3 1.3-.6 0-1.1.5-1.1 1.1 0 .5.6.7 1.2.3.8-.5.8-.1-.2 1.2-2.2 2.9-2.4 3-1.7 1.2.3-1 .2-2-.3-2.3-.6-.4-1 .1-1 .9s-.5 1.8-1.2 2.2c-.7.5-.8.2-.3-.7.5-.8.4-1.1-.1-.6-.5.5-.9 1.6-.9 2.5 0 .9-.8 1.8-1.9 2-1.3.3-1.6 0-1.1-.9.5-.7.4-1-.3-.6-.5.4-.9 1.8-.8 3.1.2 1.8-.1 2.2-1.6 1.8-1-.2-1.8.1-1.8.7 0 .7-.4.9-1 .6-.6-.4-.7.1-.3 1.1.5 1.3.3 1.6-.9 1.1-1.2-.4-1.5 0-1.3 1.9.3 2.7-1 4.1-2.1 2.3-.5-.8-.3-.9.6-.4.9.5 1.1.4.6-.4-.4-.6-1.2-.9-1.7-.5-.5.3-.6 1-.3 1.6.5.7.1.9-.9.5-.9-.3-1.9-.1-2.3.5-.5.7-.2.8.5.3.9-.5 1.2-.2.9 1.1-.2 1.1-1.1 1.8-2.1 1.8-1.5-.2-1.6.1-.5 1.4 1.2 1.4 1 1.4-1.2.2-2.5-1.3-2.5-1.3-.7.8 1.4 1.5 1.5 2.2.6 2.8-.8.4-1 .3-.5-.4.4-.7.1-1.2-.9-1.2s-1.3.5-.9 1.2c.5.7.2.9-.8.6-.8-.4-1.5 0-1.6.8-.1.8-.3 2-.4 2.8-.1.8-.8 1.2-1.7.8-1.4-.5-1.4-.4-.1 1.3.8 1 1 1.6.3 1.2-1.4-.9-4.3.1-4.3 1.5 0 .5.5.6 1.2.2.7-.5.8-.3.4.5-.5.7-1.4 1-2.1.7-.9-.3-1.2.2-1 1.4.2 1.1-.1 2.2-.6 2.5-.5.4-.6 1.1-.3 1.7.4.7.2.8-.5.4-.9-.6-.9-1.1 0-2.2.7-.9.8-1.4.1-1.4-.6 0-1.4.9-1.7 2-.3 1.1-1 2-1.5 2s-.7-.8-.4-1.8c.5-1.4.4-1.4-.4-.2-.7.9-.7 1.8-.1 2.6s.3 1.3-1.2 1.7c-1.4.4-2 1.1-1.6 2.1.4.9.3 1.5-.1 1.5-1.9-.3-2.3.2-1.3 1.5.9 1.1.8 1.4-.5 1.2-.9 0-1.9.5-2.2 1.3-.3.8 0 1.1.6.7.6-.3 1.4-.2 1.7.4.4.6.1.9-.7.8-.7-.2-1.2.3-1 1 .1.8-.2 1.1-.8.7-.6-.3-.8-1-.5-1.5.3-.5.1-1.1-.5-1.5-1-.6-1.5 1.4-1.1 4.4.2.7-.2 1-.8.6-.6-.3-1.1 0-1.1.8s-.6 2-1.4 2.6c-1.1 1-1.6.9-2.4-.5-.6-1.1-1.1-1.3-1.6-.5-.4.6-.3 1.1.2 1.1s1.2.9 1.5 2.1c.5 1.7.3 1.8-1.1.7-1-.8-1.3-.8-.9-.1.4.6 0 1.8-.8 2.6-.8.9-1.5 2.2-1.5 2.9 0 1-.3.9-1.1-.2-.9-1.2-1-1-.6.8s.2 2.2-.9 1.8c-.7-.3-1.3-.2-1.3.2.4 2.1-.2 4.2-1.2 4.2-.5 0-.7-.6-.3-1.3.4-.6.3-.9-.1-.4-.5.4-1 1.7-1.2 2.9-.3 1.8-.1 1.9 1.4.7 1.7-1.3 1.7-1.3 0 .7-.9 1.1-1.4 2.4-1 2.7.3.4.4.7.1.7-.3 0-1.2-.8-1.9-1.7-1.2-1.4-1.2-1.6 0-.8 1 .5 1.2.4.7-.4-1.3-2.1-2.7-.1-1.4 2.2 1 2.1 1 2.1-.7.7-1.7-1.4-1.7-1.4-.7.7 1.1 1.9.9 2.1-1.1 1.9-1.7-.2-2.3.2-2.3 1.8 0 1.2.5 2.5 1 2.9.7.5.2.7-1.1.4-1.6-.4-2.7.2-3.9 2-.9 1.5-1.1 2.2-.3 1.8.9-.6 1-.3.5 1.1-.5 1-.9 2.4-.9 3.1 0 .7-.4 1-.9.7-.4-.3-1.5.1-2.3 1-1.7 1.6-2 3-.5 2.1.6-.3.7.1.4.9-.7 1.9-2.1 2.1-2.7.3-.2-.6-.3-.4-.2.5.2 1-.2 1.8-.8 1.8-.7 0-.6.4.3.9.8.6 1.8.7 2.4.4.5-.3.6-.1.3.5-.4.5-1.8.9-3.2.8-1.3-.2-2.4 0-2.3.3.2 1.9-.3 3.1-1.2 2.6-.6-.3-.7.1-.4 1 .5 1.3.9 1.3 2.3.3 1.1-.8 1-.5-.3 1-2 2.2-3.2 3-2.1 1.2.3-.6-.1-.7-.9-.4-1.9.7-1.9.9-.5 3.6.8 1.5.8 1.9 0 1.4-.6-.4-1.2-.2-1.2.3-.2 1.2-.5 2.6-.9 3.8-.1.5-.2 1.2-.1 1.6.1.4-.9.2-2.1-.4-2.2-1.2-2.2-1.1-.8.6 1.4 1.7 1.3 1.8-.8 1.3-1.9-.5-2.1-.4-1.1.8.9 1.1.9 1.4-.1 1.4s-1 .3 0 1.5c1.1 1.3 1 1.4-.2 1-.8-.3-2.1.2-2.9 1.2-1.3 1.6-1.2 1.7.3.5s1.7-1.1 1.5.6c0 1.2-.6 1.8-1.4 1.5-.7-.3-1.3.2-1.3 1.2s.5 1.3 1.2.9c.7-.5.8-.3.4.5-.5.7-1.4 1-2.1.7-2.5-.9-3.5 1.5-1.7 4.2 1.6 2.5 1.6 2.5-.6 1.3-2.6-1.4-2.8-.9-.6 1.3 1.4 1.5 1.4 1.6-.5 1.6-1.2 0-2.1.5-2.1 1.1 0 .5.4.8.8.5.5-.3.9.1.9.8 0 .8-.8 1.2-2.1.9-1.7-.4-1.8-.3-.6.6 1.2.8 1.2 1.1.1 1.1-.9 0-1.2.9-.9 3.2.5 2.9.4 3-1 1.2-1.3-1.8-1.4-1.8-.7.5.5 1.6.4 2.1-.4 1.7-.7-.5-.9-.1-.5.8.4 1 .1 1.6-.9 1.6-.9 0-1.9.5-2.3 1.1-.4.8.1.9 1.7.5 1.3-.3 1.8-.3 1.1 0-.6.3-.9 1.1-.6 1.6.4.6.3.9-.2.5-.5-.3-1.8.2-2.9 1-1.6 1.3-1.7 1.5-.2 1 .9-.4 1.7-.2 1.7.4 0 .6.5.7 1.2.3.7-.4.8-.3.4.4-.4.6-1.4.8-2.2.5-1.4-.5-1.5-.3-.4 1.6.6 1.3.9 2.5.6 2.9-.3.3-.6.1-.6-.5s-.7-1.3-1.5-1.7c-.8-.3-1.4-.1-1.2.4.1.5-.7 1.6-1.8 2.5-1.9 1.6-1.9 1.6.5.2 2.4-1.3 2.6-1.3 2.6.3 0 1.1-.6 1.6-1.4 1.2-1-.3-1.3.3-1 2.3.2 1.9-.2 3-1.2 3.2-1.3.4-1.3.3 0-.7 1.2-.9 1.2-1.1.1-.8-.8.2-1.6 1.5-1.8 2.7-.3 1.9-.1 2.1 1 1.3 1-.9 1.4-.8 1.4.3 0 .7-.5 1.3-1.1 1.2-.5-.1-1 .5-1.1 1.3 0 .9-.8 1.4-1.8 1.2-2.2-.4-2.2.7 0 2.3 1.5 1.1 1.4 1.2-1 1-1.5-.2-2.5.1-2.1.6.3.5 1 .7 1.5.4.5-.3.6.1.3.9-.3.9-1 1.3-1.5 1-.5-.3-.9 0-.9.5 0 .6.4 1.1.8 1.1s.8 1 .9 2.1c.2 2.1.1 2.1-1.3.3-.9-1.1-1.3-1.3-.9-.7.3.7 0 1.3-.7 1.3-.9 0-.9.3.2 1 1.3.8 1.3 1.1.1 2.2-.8.7-1.1.8-.8.2.3-.6 0-1.1-.8-1.1-1 0-1.1.5-.4 1.9.6 1.1 1.5 1.6 2.2 1.2.7-.4.4.2-.6 1.3-.9 1.1-1.4 2.3-1 2.8.5.4.2.5-.5.1-1.1-.6-1.1-1.1 0-2.4 1.2-1.5 1.1-1.6-.4-.4-1 .8-1.4 2-1.1 2.9.5 1.2.3 1.4-.7.8-.8-.5-1.1-.4-.6.3.4.6 1.4.9 2.4.6 1.4-.5 1.4-.3-.2 1-1 .8-2.2 1.4-2.5 1.1-.4-.2-.7.5-.8 1.5-.1 1.1.2 2.2.8 2.5.5.3.6 0 .3-.8-.7-1.9 1.2-3.2 2.2-1.6.5.8.3.9-.6.4-1-.6-1.2-.4-.7.8.8 2.1-1 3.2-2.7 1.7-1.2-.9-1.3-.5-.6 2.5.6 2.8.5 3.4-.4 2.6-.9-.8-1.3-.7-1.3.4 0 .8.3 1.5.7 1.5.4 0 .7.7.7 1.5s-.4 1.2-.8.9c-1.1-.7-.6 7 .6 7.9.6.5.4.7-.5.4-.8-.2-1.5-1-1.5-1.7s-.7-1.5-1.5-1.7c-.9-.3-1.1-.1-.5.4 1.3 1 1.9 4.7.7 3.9-1.5-.9-3.2 1.8-2.2 3.4.9 1.3 1 1.3 1.1 0 .1-.8.1-1.9 0-2.3-.1-.5.3-.6.9-.2.7.4.7 1.2 0 2.6-.6 1.1-.8 2.5-.4 3.2.5.7.1.7-.9-.2-1.6-1.3-1.7-1.2-.7 1.4.9 2.2.8 2.6-.4 2.2-1.5-.6-1.5 2 0 4.5.5.7.3.8-.6.3-1-.6-1.2-.4-.6 1.1 1.8 4.4 1.8 4.8.2 2.9-1-1.1-1.5-1.4-1.1-.8.3.7.1 1.4-.4 1.4-.6.1-1.5.3-2.1.4-.5.1-1.3.3-1.7.4-.4 0-.2.6.5 1.3.8.8.8 1.6 0 3.2-1 1.8-.9 1.9.4.8 1.3-1 1.8-.9 2.9.5 1.2 1.6 1.2 1.7-.1.7-1.2-.9-1.8-.9-2.8.2-.9 1-.9 1.4-.1 1.4.7 0 .8.4.2 1.2-.7 1-1 168.9-.3 184.8 0 .8-.1 2.9-.2 4.6-.2 2.9 2.6 7.3 4.1 6.6.3-.1.6.6.7 1.7.1 1 .5 2.4.9 3.1.5.9.4 1.1-.3.6-.7-.4-1.2-.2-1.2.3 0 .6.4 1.1.9 1.1s.8 1.2.5 2.7c-.5 2.4-.3 2.5 1.3 1.2 1.6-1.2 1.7-1.2.6.2-.7.9-.9 2-.5 2.4.4.5.1.5-.5.1-1.9-1.1-1.6.5.5 2.1 1.6 1.4 1.6 1.4 0 .9-1-.3-2 0-2.4.6-.5.7-.2.8.6.3 1-.6 1.2-.3.7 1.4-.4 1.8-.3 2 .9 1s1.3-.9.8.5c-.3.9-1.1 1.6-1.7 1.6-.6 0-.3.6.7 1.3.9.7 1.9 2.6 2.1 4.2.2 1.7.4 3.1.6 3.2.1.2.3.7.4 1.3.1.5.4 1.3.5 1.7.1.5.2 1.2.1 1.6-.1.5.3.6.8.3s1.1.1 1.4.9c.4 1 .1 1.2-1.1.9-1.5-.5-1.5-.4 0 .9 2.3 1.8 2.3 2.8 0 2.1-.9-.4-.5.3 1.1 1.3 1.5 1.1 2.4 2.3 2.1 2.6-.4.4-1.4.1-2.3-.6-1.4-1-1.4-1-.4.4.7.9.9 2 .5 2.4-.4.5-.2.5.4.2 1.1-.6 4.2 1.9 4.3 3.5.1.5.1.9.2 1 .6 2.1.5 3.9-.2 4.4-1.4.8 1 4.6 2.4 3.8.7-.4.2.3-1 1.5-2.9 2.8-2.9 3.7-.1 1.7 2.6-1.9 3.8-2 3.8-.5 0 .5-.4.7-1 .4-2.1-1.3-.9 1.3 1.2 2.8 2.1 1.4 2.2 1.5.3 1.4-1.4-.2-2 .5-2.1 2-.1 1.2.2 2 .7 1.7.4-.2.5-1.2.2-2.2-.4-1.3-.2-1.3 1 .3 1 1.2 1.2 2.4.6 2.9-1.2 1.3-1.1 3.6.2 3.6.5 0 .7-.5.4-1-.3-.6-.2-1 .3-1 .6 0 1.3.7 1.6 1.6.3.8.2 1.2-.4.9-.6-.3-1 .1-1 1 0 1-.5 1.3-1.3.9-.6-.4-.8-.3-.4.1.7.8 2.8 1.5 5.4 1.7.7.1 1 .5.7 1-.3.5-.9.6-1.4.3-.4-.3-1 .1-1.3.9-.3.8.1 1.7.9 2 .8.3 1.4 1 1.4 1.7 0 .6-.7.9-1.5.5-2.2-.8-1.8.2.6 1.5 1.3.7 1.9.7 1.5.1-.3-.6-.2-1.3.3-1.6.4-.3.7 1.3.6 3.7-.1 2.3 0 3.6.2 2.9.3-.6.9-1.2 1.4-1.2.6 0 .7.4.4 1-1.1 1.8-1.4 5.1-.4 4.5.5-.4.7-1 .4-1.5-.3-.5-.1-1.2.5-1.5.6-.4 1-.3.9.2-.4 2.1.2 2.4 1.8 1.2 1.6-1.3 1.7-1.2.4.3-.7 1-1.7 1.5-2.2 1.2-.5-.3-.9.2-.9 1.1 0 .9.4 1.4.9 1.1.5-.3 1.1.1 1.4.9.4 1 .1 1.2-1.1.9-.9-.2-.7.1.6.7 1.2.7 2.2 1.6 2.2 2.1s-.4.7-.8.4c-.5-.3-.9.1-.9.9s.4 1.2.9.9c.4-.3 1.6 0 2.5.6 1.6.9 1.6 1 .1.8-.9-.2-1.6.1-1.5.7.1.5.6.9 1.1.7.5-.2.6.4.2 1.3-.3 1-.2 1.3.4 1 .7-.4.9.3.6 1.8-.3 1.6.4 3.3 2 5.1 1.4 1.4 2.1 2.6 1.7 2.6-.4.1.6 1.2 2.2 2.6 1.7 1.5 2.3 2.3 1.5 1.9-1-.4-.9-.1.2.8 1.8 1.4 2.5 3.3 1 2.3-.5-.3-.9.1-.9.9s.4 1.2.8.9c.4-.2 1 .4 1.4 1.5.5 1.6 1.6 3.2 5.5 7.9 1 1.1.6 1.6-1.2 1.3-.4 0-.5.6-.2 1.4.4.8 1 1.5 1.6 1.5.5 0 .6-.5.3-1-.3-.6-.1-1 .4-1 1.5 0 1.4 2.3-.2 3.9-1 1-.8 1.1.7.5 1.5-.6 1.7-.4 1.1.7-.7 1.1-.5 1.1 1-.1 1.1-.9 1.6-1 1.1-.3-.4.7-.2 1.3.3 1.3.6 0 1.1.7 1.1 1.6 0 .9.5 1.2 1.2.8.7-.4.8-.3.4.5-.4.6-1.1.9-1.6.6-.5-.3-1.2 0-1.6.6-.4.7-.3.9.4.5.6-.3 1.3-.2 1.7.4.3.5.1 1-.6 1s-.9.3-.6.6c.4.4 1.3.2 2-.5 1.2-.9 1.3-.7.9 1.4-.2 1.5 0 2.5.7 2.5s.9-.5.6-1c-.3-.6-.1-1 .5-1s.9.8.6 1.7c-.7 2.3.8 4.8 2.3 3.9 1.7-1.1 1.3.5-.6 1.9-1.3.9-1.3 1.4-.3 2 .9.5 1.1.4.6-.3-.4-.7-.2-1.2.3-1.2.6 0 1.1.5 1.1 1.1 0 .5.6.7 1.3.3.8-.5.8-.2-.2.9-1.6 2-.1 2.3 1.8.4 1.1-1 1.1-.8.2 1-.9 1.7-.9 2.3 0 2.3.7 0 .9.9.6 2.1-.3 1.2-.3 1.8 0 1.5.9-.9 3.4 1.5 2.7 2.6-.8 1.3 1.6 3.8 3.7 3.8 1.1 0 1.9.5 1.9 1.1 0 .5-.4.8-.8.5-.5-.3-.9.1-.9.9s.3 1.4.6 1.3c1.8-.2 3.1.3 3.1 1.3 0 .5-.4.7-1 .4-1.1-.7-1.4.8-.3 1.8.3.4 1.2-.1 2-1.1 1-1.3 1.3-1.4 1.1-.2-.2.8.2 1.4.8 1.3.7-.1 1.1.5 1 1.5 0 .9.5 1.6 1.2 1.4.8-.1 1.1.2.7.7-.3.6-1.3.8-2.3.5-.9-.2-.7.1.5.7 1.3.7 2.3 1.6 2.3 2.1s-.4.6-1 .3-.7.1-.4 1c.6 1.4.8 1.4 2-.2.9-1.2 1.3-1.4 1.4-.5 0 .7.5 1 1.2.6s.8-.3.4.5c-.4.6-1.2.9-1.7.6-.5-.4-.9-.1-.9.4 0 .6.7 1.1 1.5 1.1s1.5.5 1.5 1.1c0 .5-.5.7-1.1.4-.6-.4-.5.2.3 1.4.7 1.1 1.9 2.3 2.7 2.6 1 .4.9 0-.4-1.5-1-1.1-1.3-2-.7-2 .7 0 1.2.5 1.2 1.1 0 .5.4.8.8.5.4-.2.9.5.9 1.7.1 1.2.7 2.3 1.3 2.5.7.3.7.9-.2 2-1.2 1.3-1 1.4 1 .3 1.2-.6 2.2-.7 2.2-.2 0 .5-.6 1.2-1.2 1.4-.7.3-.3.6 1 .6 1.5.1 2.2.7 2.2 2.1 0 1.1-.5 2-1.2 2-.6 0-.8.3-.4.7.4.5 1.4-.1 2.2-1.1 1.4-2 1.4-2 1.4 0 0 1.1-.5 2.5-1 3.2-.7.9-.7.9.2.2 2-1.7 3-1.1 2.3 1.2-.5 2-.5 2.1.5.5.9-1.4 1.5-1.6 2.6-.6.8.6 1.4 2 1.4 3.1 0 1 .4 1.7.8 1.4 1-.6 2.2.3 4.2 2.8.9 1.2 1 1.7.3 1.2-.7-.4-1.3-.2-1.3.3 0 .6.4 1.1 1 1.1.5 0 1.9.9 3 2 1.2 1.2 2.6 1.8 3.1 1.4.8-.4.7 0 0 1.4-1.4 2.6-1.4 3.2 0 3.2.5 0 .7-.5.4-1-.3-.6-.1-1 .4-1 .6 0 1.1.4 1.1 1 0 .5.8.7 1.8.4.9-.2.8 0-.5.7l-2.1 1.1 2.6 2.3c1.9 1.6 3.1 2 3.9 1.3.8-.7 1.2-.4 1.2.9.1 3.5.4 5.3.9 4.8.9-.9 3.2 1.7 2.5 2.8-.4.6-.1.7.6.2.8-.4 1.8.1 2.7 1.4.8 1.2 2.1 2.1 2.7 2.1.8 0 .7-.4-.2-.9-.8-.5-1.6-1.7-1.7-2.5-.1-.9.2-1.4.7-1 .5.3.7.9.4 1.4-.3.4.2 1.1 1 1.4 1.3.5 1.4 1 .4 2.8-.9 1.8-.9 2.1.1 1.1 1-.9 1.8-.6 3.7 1.3 1.3 1.3 2.9 2.4 3.5 2.4.6 0 .5.7-.3 1.7-1.3 1.5-1.2 1.5 1.1.3 2.2-1.2 2.4-1.2 1.2.3-1.1 1.3-1 1.6.8 2.2 1.6.5 1.8 1 1 2s-.8 1.5.1 2.1c.7.4.9.3.6-.3-.4-.6 0-1.7.9-2.4 1.2-1 1.5-1 1.2.2-.2.8.3 1.3 1 1.1.6-.1 1.2.7 1.2 1.8s.4 2 .8 2c.5 0 1.7.7 2.8 1.5 1.6 1.3 1.6 1.4.2.9-1-.3-1.8-.2-1.8.4 0 1.1 1.8 1.1 3.8-.2 1.9-1.2 2.7.1 1.2 1.9-.7.9-.8 1.5-.2 1.5.6 0 1.2.6 1.5 1.2.2.7.3.6.2-.3-.1-.9.3-1.6 1-1.6s1.2.8 1 1.8c-.2 1.1.4 2 1.5 2.4 1.1.3 1.9 1.1 1.7 1.7-.1.6.6 1.2 1.6 1.3.9.2 1.5-.1 1.1-.6-.3-.5-1.1-.6-1.7-.3-.7.4-.8.3-.4-.1 1.8-2 3.4-1.2 3.2 1.5-.2 2 .2 2.7 1.4 2.6.9 0 1.9-.6 2.3-1.1.4-.6.6.3.5 2-.2 2.6.1 3 2.1 2.7 1.2-.2 2.2.2 2.2.8 0 .6-.4.8-1 .5-.5-.3-1-.1-1 .5 0 .7.7.9 1.5.6.9-.3 1.8.1 2.1.9.4.8 1.1 1.5 1.6 1.5.6 0 .5-.6-.2-1.5-.9-1-.9-1.5-.1-1.5.6 0 1.1.5 1.1 1.1 0 .5.5.7 1.1.3.7-.4.7.2-.1 1.7-1 2-1 2.2.1 1.1 1.9-1.8 3.4-1.5 1.8.5-1 1.1-1 1.4-.2.9.8-.4 1.3-.2 1.3.5 0 .9.3.9 1.4 0 1.2-1 1.3-.8.9.9-.4 1.4-.1 2 .8 1.8.8-.2 1.3.4 1.1 1.2-.1 1 .2.9 1.3-.4.8-1.1 1.5-1.4 1.5-.7s.4 1 .9.7c.5-.4.7.4.3 1.6-.4 1.8-.2 2 1.6 1.6 1.6-.4 2-.2 1.7 1.2-.3 1.4.1 1.6 1.7 1.2 1.3-.3 1.9-.1 1.5.5-.4.6 0 1.4.9 1.7.8.3 1.3 1 1 1.5-.4.5.5.8 1.8.7 1.5-.2 2.7.3 3.1 1.2.4 1 0 1.2-1.2.8-1.4-.6-1.5-.5-.6.5 1 .9 1.5 1 2.7 0 .9-.8 1.6-.8 2-.2.4.6 1.4.8 2.4.5 1.4-.5 1.4-.4.2.4-1 .8-1.9.7-2.9-.1-1-.8-.8-.3.3 1.6 2.1 3.1 2.8 3.5 1.9.9-.6-1.5-.5-1.5 1-.3.9.7 1.4 1.8 1 2.5-.3.6.4.2 1.6-.9 1.6-1.4 2.2-1.5 1.9-.5-.2.8.2 1.4.8 1.3.7-.1 1 .7.8 2-.2 1.2-.2 1.6.2.9.3-.6 1-1.2 1.5-1.2.6 0 .7.4.4 1-.9 1.4 1.9 1.2 3.3-.2.7-.7 1.2-.8 1.2-.4 0 .5-.7 1.4-1.5 2-1.4 1-1.4 1.3 0 3.1 1.5 1.9 1.6 1.9.4-.5-.9-2-.9-2.3.1-1.3.7.6 1.9.9 2.6.6.8-.3 1.4 0 1.4.7 0 .6-.4.8-1 .5-.5-.3-1-.4-1-.1 0 1 5.5 3.3 7.3 3.1.9-.2 1.5.1 1.1.6-.3.5-.9.7-1.4.4-.5-.3-1.2 0-1.6.6-.4.8-.3.9.4.5s1.2-.1 1.2.6c0 .9.3.9.8.2 1-1.5 5.9-1.3 5.9.3 0 .9-.4 1-1.3.2-1.3-1-3.2.6-2 1.8.3.4.6.1.6-.7 0-1 .3-1 1.5 0 .8.6 1.8.9 2.4.6 1.3-.9 4.3 2.3 3.4 3.7-.4.7.1.6 1-.2 1.1-.9 1.7-1 1.7-.2 0 .6.9 1.1 2 1.1s2 .5 2 1.1c0 .5-.4.7-1 .4-.6-.3-.7.1-.3 1 .5 1.3.7 1.4 1.4.3.7-1 .9-1 .9.2 0 1.3.1 1.3 1 0 .8-1.3 1.1-1.3 2.2-.1s1 1.3-.2.6c-.9-.5-1.2-.4-.7.1.9.9 1.3 1 4.3 1.3.8 0 1.3.5.9 1.1-.3.5-1.3.6-2.3.3-.9-.3-1.4-.3-1 .1.3.4 1.2.9 2 1 .7.1 2.4.8 3.8 1.5 2.4 1.1 2.4 1.1.5-.4-1.8-1.4-1.8-1.6-.2-3 .9-.8 1.3-1 .7-.3-.6.7-.2 1.9 1.3 3.4 1.7 1.8 2.5 2 4.2 1.2 1.8-1 1.8-.9.7.5-1.1 1.3-1 1.7.9 2.7 1.4.8 1.9.8 1.5.1-.4-.6-.3-1.1.2-1.1 1.7 0 2.2 1.3.9 2.9-1 1.4-1 1.4.5.3 1.3-1 1.7-1 2.2 0 .3.7.3.2 0-1.1-.4-1.6-.3-2.1.5-1.7.6.4 1.1 1.3 1.1 1.9 0 1.7 3.7 3.9 4.5 2.7.8-1.3 2.5-1.3 2.5.1 0 .5-.4.8-.8.5-.5-.3-.9.1-.9.8 0 .7.6 1.3 1.4 1.3.7 0 1.3-.6 1.3-1.4 0-.7.5-1.3 1-1.3.6 0 .9.3.9.7-.4 2.3.3 3.2 1.8 2.6 1.2-.5 1.4-.3.8.8-.6 1.1-.5 1.2.6.1.7-.6 1.8-1.2 2.4-1.2.5 0 .3.5-.5 1.1-1.2.9-1 1 .8.6 2-.5 2.2-.3 1 1.1-.7.9-.9 1.4-.4 1 .5-.4 2-.1 3.5.6 2.7 1.4 5.5 1.1 4.5-.5-1.2-2 1-.7 3.7 2.2 2.6 2.7 3.1 3 4.6 1.8 1.1-1 1.4-1 .9-.2-.4.7-.2 2.1.4 3 1.1 1.7 1.1 1.7.6 0-.3-.9-.1-1.7.4-1.7.6 0 1 .5 1 1.2 0 .6.3.9.6.5.4-.3 1.3.1 2.1.9s1.9 1.2 2.4.9c.5-.4.9-.1.9.5s.4.9.9.5c.5-.3 1.2-.1 1.6.4.3.7 1.5.7 3 .1 2-.8 2.3-.6 2 1.1-.5 2.6.4 2.4 1.5-.4.6-1.5.9-1.7.9-.6.1 1.8 2.1 3 6 3.5 2.1.3 2.2.2.6-1-1.4-1-1.5-1.5-.5-2.1.8-.5 1.1-.4.7.2-.4.6 0 1.4.9 1.7.8.3 1.3 1 .9 1.5-.8 1.3 1.6 2.6 4.2 2.3 1.2-.2 3 .1 4.1.7 1.3.7 2.3.7 3.2-.2.9-.8 1.1-.8.7-.1-.6 1 1.3 2.5 3.5 2.8.3.1 1 .4 1.4.9.4.4 1.7-.1 2.8-1 1.7-1.5 1.8-1.5.8-.2-1 1.4-1 1.8.3 2.3.9.3 1.4.2 1.1-.2-.2-.4.4-.8 1.4-.8 1.4 0 1.6.4.9 1.2-.8.9-.5 1.1 1 .7 1.2-.3 1.8-1 1.5-1.5-.3-.5.3-.4 1.5.4 1.2.7 2 1.7 1.7 2.3-.2.5.7 1 2 1h2.3l-2.2-2.5-2.2-2.5 2.5 2c1.4 1.1 2.8 2.4 3.1 2.9 1 1.3 4.1-.2 3.4-1.6-.4-.7.5 0 1.8 1.6 1.8 2 2.7 2.5 3.2 1.6.6-.9.4-1.1-.5-.5-.9.5-1.1.4-.6-.4.6-.8 1.2-.9 2-.2.7.6 1.6.8 2 .4.4-.4.4.1.1 1.2-.7 2-.6 2 1.1 0 1.2-1.5 1.5-1.6 1.1-.4-.5 1.4.1 1.6 2.9 1.4 1.9-.2 3.2.1 2.9.6-.4.5-.2.9.4.9.6 0 .8.8.4 1.8-.7 1.8-.5 1.7 1.7-1.2.8-1.1 1-1.7.4-1.3-.6.3-1.1-.1-1.1-.9 0-1 .4-1.1 1.1-.4 1.4 1.4 4.3 1.3 4.9-.3.3-.6.4.3.2 2.1s0 3 .6 2.6c.5-.3.6-1 .3-1.6-.5-.8-.1-.9 1-.5 1 .4 2 .7 2.3.7.3 0-.1.7-.8 1.7-1.3 1.5-1.2 1.5.8.3 1.7-1.1 1.9-1.8 1.2-3.2-.6-1-1.5-1.5-2.1-1.2-.7.5-.8.2-.3-.6 1.1-1.8 4.8 2.7 4 4.9-.3 1.1 0 .9 1.1-.4 1.6-2 1.6-2 1.1.3-.3 1.2-.1 2 .4 1.6.5-.3.9-1.5 1-2.7v-2.2l.9 2.2c.8 1.9 1.4 2.1 4.6 1.6 3-.5 3.6-.3 3 .8-.4.8.2.3 1.5-1.1l2.2-2.5-.8 2.5c-.7 2.2-.6 2.3.9 1.1 1.1-.9 1.6-1 1.6-.2s.6.9 1.8.3c1.6-.8 3.9-.8 9.2.1 1.4.3 3.2.1 4.1-.4 1.3-.7 1.5-.3 1.2 1.9l-.4 2.7 1.6-2.8c1.9-3.3 3.3-3 1.5.3-.6 1.2-.9 2.4-.7 2.7.3.2 1-.4 1.6-1.6 1.5-2.7 5.3-2.4 4.5.4-.4 1.6-.3 1.7.5.5.6-.9 1.1-1 1.1-.3 0 1.2 2.4 1.2 3.6 0 .4-.3 1.5-.2 2.5.3 1.2.7 2 .6 2.5-.2.4-.7.3-.8-.4-.4-1.8 1.1-1.4 0 .5-1.5 1.4-1.2 1.6-1.2.8 0-.6 1.1-.4 1.3.8.8 1-.4 1.7-.2 1.7.4 0 .6.9.9 2 .6 1.1-.3 2.3 0 2.7.5.4.7.1.8-.7.3-.9-.5-1.1-.4-.6.4.6.9 1.1.9 2.2 0 .8-.6 1.4-.8 1.4-.4s.8.1 1.7-.6c1.5-1.2 1.6-1.2 1 .3-.5 1.5-.3 1.6 3.3.3 3.7-1.3 3.8-1.3 3.5.8-.4 2.1-.4 2.1 1.6-.3 1.1-1.4 1.8-1.9 1.4-1.2-.4.7 0 1.2 1 1.2.9 0 1.4.4 1.1.8-.6 1 4 .9 5-.1.4-.3-.3-.5-1.5-.2-1.1.2-2.1 0-2.1-.6 0-1 2.8-.8 4.7.4.9.6 1.1.3.6-1-.6-1.6-.5-1.6 1.1-.4.9.8 1.5 2 1.2 2.8-.4.8-.1 1.1.5.8.6-.4.8-1.2.6-1.9-.3-.7 1.1-1 4.2-.9 3.1.1 4.5.5 4.3 1.4-.2.9 0 1 1.1.1.8-.7 1.8-.8 2.2-.4.5.4.5-.2.1-1.2-.5-1.6-.4-1.7.9-.6.8.7 2.3 1 3.4.7 1-.2 2.5 0 3.4.4 1 .6 1.8.5 2.3-.2.4-.7.3-.9-.4-.5-.6.3-1.4.1-1.8-.5-.4-.7-.3-.9.4-.5.6.3 1.3.2 1.7-.4.3-.5 1.2-1 1.8-1 .7 0 .6.4-.3 1-1.8 1.2-1.9 1.2 5.3 1.4 3.2.1 6.1-.2 6.4-.7.3-.6.2-.7-.4-.4-.5.3-1 0-1-.8 0-1.1.4-1.2 1.3-.4.8.7 1.4.6 1.8-.3.3-.7.3-.2 0 1.1-.4 1.7-.2 2.2.7 1.9.8-.3 1.2-1.4 1.1-2.4-.4-1.7-.2-1.7 2 .4 1.8 1.6 2.5 1.8 2.5.8 0-.8-.5-1.2-1-.9-.6.3-.7.1-.3-.5.4-.7 1.7-1 2.9-.8 1.2.2 2.7-.1 3.3-.5 1.5-1.2 4.6 0 3.7 1.5-.4.7-.1.7.9-.1.8-.7 1.9-.9 2.4-.5.4.4.3-.1-.4-1-1.1-1.4-1-1.6.7-1.1 1.2.3 1.9.9 1.6 1.3-.6.9.8.8 4.3-.4 1.2-.4 1.9-1.2 1.6-1.8-.4-.6.2-.5 1.5.2 1.2.6 1.8 1.6 1.5 2.2-.4.7-.3.8.5.4.6-.4.9-1.2.6-1.7-.4-.5-.1-.9.4-.9.6 0 1.1.4 1.1.9 0 .7 2 .7 9.2-.1 1.2-.2 1.4-.6.7-2s-.6-1.6.6-1.2c.8.4 2.3 0 3.2-.7.9-.8 1.4-1 1.1-.4-.3.5 0 1.6.8 2.3.9.8 1.4.9 1.4.2 0-.6.4-.8 1-.5.5.3.7 0 .4-.8-.3-.8 0-1.8.7-2.3.7-.4 1-.3.5.4-.3.6-.2 1.3.4 1.7.5.3 1 .1 1-.4 0-.6.7-1.1 1.5-1.1s1.5-.5 1.5-1.1c0-.6.7-.4 1.5.4 1.5 1.6 5.9 1.2 4.9-.4-.3-.5 0-.9.5-.9.6 0 1.1.4 1.1 1 0 .5.5 1 1.1 1 .6 0 .9-.7.5-1.5-.7-2-.1-1.9 2 .2 1.6 1.6 1.6 1.6 1-.3-.5-1.5-.1-2 1.6-2.1 1.8-.2 1.9 0 .8.7-1.1.7-1 .9.8.7 1.2 0 2.2-.5 2.2-1s.7-.6 1.6-.3c.9.3 1.2.2.9-.5-.4-.6-1.3-.8-2.1-.5-.7.3-1.6.1-1.9-.4-.5-.8 1.7-.7 6.3.4 1.5.3 2.2 0 2.2-1.1 0-1.3.3-1.3 2.6.2 2.5 1.6 2.5 1.6 1.3-.7-.6-1.3-.8-2-.4-1.6 1.2 1.1 4.7-1.1 3.9-2.5-.4-.7-.3-.8.2-.4.5.5.9 1.3.9 1.8s.3.8.6.6c.3-.1 1.4.5 2.5 1.3 1.7 1.3 1.7 1.3-.1-.9l-2-2.4 2.5 1.3 2.5 1.3-1.9-2.2c-1.1-1.1-1.4-2.1-.8-2.1.7 0 1.2.4 1.2 1 0 .5.7 1 1.6 1 .8 0 1.3-.4.9-.9-.3-.5 0-1.3.6-1.7.8-.4.9-.3.5.4-.5.8.1 1.2 1.4 1.2 1.3 0 1.9-.4 1.4-1.2-.5-.7-.3-.8.7-.2 2 1.2 3.9 1.4 3.9.3 0-.5 1.5-.2 3.3.6 2.8 1.4 3 1.4 1.3 0-1.7-1.2-1.8-1.7-.6-2.8 1-1 1.1-.9.5.2-.6 1.1-.4 1.3.9.8 1-.4 2-.7 2.3-.7.3 0 0-.7-.7-1.5-2-2.4-.3-1.7 2 .7 1.8 2 2 2 1.4.4-.6-1.6-.4-1.8 1.9-1.2 1.9.4 2.9.1 3.6-1.1.6-1 1.1-1.2 1.1-.6 0 .7.5 1.3 1.1 1.3.6 0 .9-.7.6-1.4-.4-1.1-.1-1.3 1.1-.9.9.4 2 1.1 2.5 1.7 1 1.5.3-2.6-.8-4.4-.7-1.3-.6-1.3.7-.2 1.3 1 1.7 1 2 0 .3-.8.7-.6 1.1.6.4 1 .3 1.5-.3 1.1-.6-.3-1-.1-1 .5 0 .7.6 1 1.3.7.6-.2 1.1-1.2 1.1-2.1-.1-.9.1-1.6.5-1.7.3 0 1.4-.2 2.3-.4 1-.2 2.2.4 2.8 1.3.5 1 1 1.2 1 .4 0-.6.3-1.1.8-1.1 2.2.4 3.1-.3 2.6-1.9-.5-1.6-.5-1.6.9.1 1.3 1.5 1.5 1.6 2.1.2.3-.8 1.3-1.5 2.1-1.5.9 0 1.4-.4 1-.9-.3-.5-.1-1.2.5-1.6.5-.3 1-.1 1 .4 0 .6.4 1.1 1 1.1.5 0 .6-.7.3-1.7-.4-1-.2-1.4.4-1 .6.4 1.4.1 1.7-.5.3-.7.4-.2.1 1.2-.3 1.4-.2 2 .1 1.3.4-.8 1.3-.9 3-.3 1.7.7 2.3.7 1.9 0-.3-.6-1.3-1-2.2-1-.9 0-1.3-.3-1-.7.4-.3.1-1.3-.6-2.1-.8-1.1-.2-.9 1.8.4 2.7 1.6 2.8 1.7 1.6.1-1.2-1.5-1.2-1.7.4-1.1 1.4.6 1.6.4 1-.6-.5-.8-.4-1.1.3-.6.5.3 1.3 0 1.6-.6.3-.7.3-.2 0 1.2-.5 2.4-.4 2.4 1 .6.9-1 1.3-2.3.9-2.9-.3-.6-.1-.7.5-.3.5.3 1.3 0 1.6-.6.3-.9.5-.8.3.2-.1.8.3 1.6.8 1.7.6.2 1 0 1.1-.5 0-.4.4-1.5.9-2.5.7-1.7.8-1.7 2.1 0 1 1.5 1.5 1.6 2.6.5s1-1.2-.7-.7c-1.8.6-1.9.6-.2-.5 1.4-.9 2.2-.9 3.4.2 1.2.9 1.5.9.9.1-.7-1.3.3-1.7 3.4-1.4 1.3.2 1.3.1 0-.8-.8-.5-1.7-.8-2.1-.5-.4.2-1.1-.1-1.5-.7-.4-.7-.3-.9.4-.5.5.3 1.3 0 1.5-.6.4-1 .6-1 .6-.1.1.7.6 1.3 1.2 1.3.5 0 .7-.4.4-1-.3-.5-.1-1 .5-1s.9-.4.6-.8c-.2-.4.5-.9 1.7-.9 2-.2 2-.1.5.8-1 .6-1.8 1.5-1.8 2.2 0 .8.3.8.8.2.4-.6 2.2-2.2 4.1-3.4 2.4-1.8 3.5-2.1 4.1-1.2.5.9.9.8 1.3-.4.5-1.1.3-1.4-.6-.9-.8.5-.9.4-.2-.4.6-.7 2.3-1.3 3.7-1.4 2-.2 2.4-.5 1.7-1.4-.8-.9-.5-1.1 1-.7 1.2.3 1.8 1 1.4 1.7-.3.6-.2.7.3.3.9-.8 1-1.2 1.3-3.8.1-.8.7-.7 1.8.2 1.4 1.2 1.6 1.2.8 0-.6-1.1-.3-1.3 1.3-.9 1.4.4 1.9.2 1.6-.7-.3-.7 0-1.6.7-2.1.8-.4 1-.3.5.4-.4.7-.2 1.2.3 1.2.6 0 1.1-1 1.2-2.3 0-1.2.3-1.6.6-1 .2.7.9 1.3 1.4 1.3.4 0 .6-.6.3-1.4-.3-.8 0-1.7.7-2.2.7-.4 1-.3.5.4-.4.6.1 1 1.3.9 1.6-.1 1.8-.4.8-1.6-.9-1.2-.5-1.1 1.6.2l2.8 1.8-1.1-2.3c-1-1.9-1-2.1.1-1.1.7.7 1.8 1.3 2.4 1.3.5 0 .4-.4-.4-.9-1.9-1.2-.5-3.1 1.9-2.6 1.1.2 2.2-.1 2.5-.6.4-.5 1-.7 1.5-.4.5.3 1.1.1 1.5-.5.4-.6 1.1-.7 1.7-.4.6.4.6-.1-.1-1.4-1-1.9-.9-2 1.6-1.6 2.3.4 2.5.3 1.3-1.1-1.5-1.8 0-2 1.9-.3 1 1.1 1.1.9.5-.6-.4-1.1-.3-1.7.2-1.4 1.2.8 3.5-1.7 2.6-2.8-.4-.5 0-.3.9.4.9.6 1.9.9 2.2.5.4-.3.7 0 .7.7s.2 1.1.5.8c1-.9-.7-3.8-1.8-3.1-.6.4-.7.1-.2-.6.5-.9 1-1 1.8-.2 1.3 1.3 5-2.6 4-4.2-.3-.6-.1-.7.6-.3.6.4.9 1.3.5 1.9-.3.7.3.1 1.4-1.2 1.8-2.2 2-2.3 2.9-.6.9 1.6 1.1 1.6 1.6-.4.3-1.2.1-1.9-.4-1.5-.5.3-.9 0-.9-.5 0-.6 1.4-1.1 3.2-1.1 2.9 0 3-.1 1.3-1.3-1.7-1.3-1.7-1.4.6-1.3 1.3.1 2.4-.4 2.4-1.1 0-.6.4-1.5.9-2s.6-.3.2.4c-.4.7-.2 1.3.3 1.3.6 0 1.1-.6 1.1-1.4 0-.8.5-1.8 1.2-2.2.7-.5.9-.2.6.8-.4.8-.1 1.5.7 1.5.7 0 1.1-.7.7-1.5-.4-1.2 0-1.4 2.3-.8 2.5.6 2.6.6 1.1-.9-1.2-1.3-1.3-2-.4-3.5.7-1.1 1.5-1.6 1.8-1.2 1.1 1.5 4 1.3 4-.3 0-1-.5-1.3-1.2-.9s-.8.3-.4-.5c.6-.9 1.1-.9 2.4.1 1.2 1 1.4 1 .8 0-.5-.8-.1-1.2 1.1-1.2 1.4 0 1.5-.2.4-.9s-.9-1 1-1.3c1.3-.2 2.3-.9 2.2-1.5-.2-.7.3-1 1.1-.7.8.3 1.7 0 2.1-.5.3-.6 1.2-.8 1.8-.5.7.4.9.4.5-.1-.4-.4-.2-1.5.4-2.4.7-.9.1-.6-1.3.7-1.9 1.6-2.6 1.9-2.6.8 0-.8.4-1.3.8-1.1.3.3 1.2-.2 1.9-1.1.7-.8 2-1.2 2.8-.9 1.2.4 1.2.3.3-.9-1-1.2-.9-1.3.8-.9 1.3.3 2.1.1 2.1-.6s.5-.9 1.3-.5c.9.6.9.5-.1-.8-1-1.2-1-1.7.1-2.7.8-.6 1.7-.8 2-.4.4.3 1.3.1 2-.5.8-.7 1.7-.9 2.1-.5.4.4.2-.6-.4-2.2-.9-2.4-.9-2.8.1-1.8 1.9 1.9 3.4 1.6 1.8-.4-.8-.9-.9-1.4-.2-1 1.6 1 4.4-.3 3.6-1.6-.4-.6 0-.8 1.1-.4 1.3.5 1.5.2 1.2-2.1-.5-2.6-.4-2.6.9-.8 1.5 2 1.5 2 1.6 0 .1-1 .1-2.4 0-2.9-.1-.6.6-.1 1.4.9 1.8 2.3 2 1.4.3-1.7-1-2-1-2.1.5-.8 1.5 1.2 1.7 1.1 1.8-.5.1-1.1.1-2.2 0-2.7 0-.4.2-.6.6-.6.5.1 1.1 0 1.6-.1.4-.1 1.2-.3 1.9-.4.6 0 1.3-.7 1.6-1.4.2-.8-.2-1-1.5-.5-1 .3-1.5.3-1.2-.1.6-.7 5.1-1.8 7.6-1.9.7 0 1-.4.7-.9-.3-.5-1-.6-1.5-.3s-.6-.1-.3-1c.5-1.1 1-1.3 1.9-.5 1 .8 1.5.8 2.1-.1.4-.8.3-.9-.4-.5s-1.2.1-1.2-.8c0-.8.5-1.8 1.2-2.2.7-.5.8-.3.3.6-.6.9-.4 1.1.4.6.7-.5 1-1.4.7-2.2-.3-.7 0-1.6.6-2 .7-.4.8-.3.4.4-.5.8 0 1.1 1.6.9 1.7-.3 2.3-1 2.2-3 0-1.4.2-2.5.5-2.5 2.3.2 4.4-.4 3.6-1-1.4-1-1.7-3.2-.5-3.2.5 0 1 .5 1 1.1 0 .5.5.7 1 .4.6-.4.8-1.1.4-1.6-.3-.6.3-1.3 1.4-1.6 1.4-.3 1.9-1.1 1.7-2.4-.3-1.3.2-1.9 1.5-1.9 1 0 2.1-.7 2.4-1.6.6-1.5.4-1.5-1.1-.3-1.7 1.3-1.7 1.3 0-.7.9-1.1 1.4-2.5 1-2.9-.5-.5 0-.3 1 .4 1.5 1.2 1.7 1.2 1.1-.4-.5-1.3-.4-1.6.4-1.1 1.6 1 1.5-.7 0-2.3-1.1-1-.8-1 1.3-.2 2.2.8 2.6.7 2.5-.7 0-.9.5-1.6 1.2-1.4 1 .2 1-.2.2-1.7-1.4-2.8-1.3-3.8.3-1.7 1.2 1.6 1.4 1.7 1.5.2.1-.9.3-2.2.4-3 .1-.8.8-1.2 1.5-.9.8.3 1.3 0 1.1-.8-.2-.8.3-1.3 1.1-1.1.8.2 1.1-.3.8-1.2-.8-1.9.3-2.8 1.9-1.5 1 .8 1.2.6.9-1.1-.3-1.7 0-2 1.2-1.6 1.4.6 1.4.4.2-1.1-.7-1-.9-1.5-.5-1.1.5.4 1.5 0 2.3-1 .8-.9 1.1-1.1.7-.3-.5 1-.3 1.2.5.7.9-.6.9-1.1.1-2.1-.8-.9-.8-1.5 0-2 .6-.3.7-1.1.4-1.7-.4-.7-.2-.8.5-.4.9.6.9 1.1 0 2.2-.8 1-.8 1.4 0 1.4.6 0 1.1-.5 1.1-1.1 0-.5.5-.7 1.1-.3.8.4.8 0 0-1.5-1-1.7-.9-2.1.4-2.1.9 0 1.3.4 1 1-.3.6.1.7 1 .4 1.4-.6 1.4-.8-.2-2-1.7-1.3-1.7-1.3.2-1.5 1.1-.1 2.4-.1 2.8 0 .4.1.3-.8-.4-2-1-1.9-.9-2.1.6-1.5 1.4.5 1.6.4.6-.7-.9-1.2-.7-1.4 1.3-1.2 2.4.3 2.8-.8 1.2-3.4-.6-1-.5-1.2.3-.7.6.4 1.4 0 1.7-.8.3-.9 1.1-1.3 1.7-.9.7.4.8 0 .4-1.2-.6-1.3-.3-1.6 1.1-1.3 1.1.3 1.9 0 1.9-.8 0-.7-.4-1.1-.9-.8-.4.3-.8-.2-.8-1 0-1 .6-1.3 1.6-.9 1.4.5 1.5.3.4-1.8l-1.3-2.4 2.2 2c1.2 1.1 2.2 1.5 2.1 1-.5-2.2.1-3.6 1.2-2.9.7.4.8.3.4-.5-.6-.9-1.1-.9-2.2 0-1.2 1-1.3.9-.8-.5.3-.9 1-1.6 1.6-1.6.5 0 .7-.4.3-.9-.3-.5-.1-1.2.4-1.5.5-.4 1.3-.1 1.7.5.5.8.3.9-.6.4-.9-.6-1.1-.4-.6.4 1 1.5 1.9.7 2.3-2 .2-1.1-.1-1.8-.6-1.4-.5.3-1.3 0-1.7-.7-.4-.7-.4-1 .1-.6.4.4 1.5.2 2.3-.5 1.1-.8 1.4-.8.9 0-.4.6-.2 1.5.5 1.9.7.4 1 .4.6-.1-.4-.4-.3-1.6.3-2.6.8-1.5.6-1.8-.8-1.3s-1.5.4-.4-.4c.8-.6 1-1.5.5-2.3-.6-1.1-.5-1.2.7-.2 1 .8 1.9.9 2.9.1 1.3-.8 1.2-.9-.2-.5-.9.3-1.9 0-2.1-.7-.4-.9.2-1.2 1.7-1.1 1.6.2 2.2-.3 2.3-1.9.2-2.1.2-2.1-1.3-.2-.8 1.1-1.4 1.5-1.4.9s.7-1.6 1.5-2.3c.9-.7 1.4-1.9 1.1-2.6-.6-1.6 2.4-4.2 4.6-3.9 1.1.2 1.5-.2 1.1-1.3-.5-1.1-.3-1.3.7-.7.9.5 1.1.4.6-.4-.6-.9-1.1-.9-2.3.1-1.5 1.2-1.5 1.1-.3-.9.8-1.2 1.9-1.9 2.5-1.5.5.3.3-.3-.5-1.3-1.1-1.4-1.2-1.9-.2-2.2.6-.3 1-.9.7-1.3-.3-.5.4-.7 1.6-.5 1.6.3 1.8.1 1-.9-1.1-1.4-.5-2.6 1.3-2.6.6 0 .4.5-.4 1s-1 1-.4 1 1.8-.8 2.5-1.7c.8-1 .9-1.4.2-1-1.8 1.1-2.5-1-.9-2.6.8-.8 1.2-1.7.9-2.1-.4-.3.1-.6 1-.6 1 0 1.7-.5 1.7-1.1 0-.5-.5-.7-1.2-.3-.7.4-.8.3-.4-.4s1.5-1.2 2.4-1.2c1.5-.1 1.4-.3-.3-1.6-1.9-1.5-1.9-1.5-.1-1.2 1 .2 2.1-.3 2.4-1.1.3-.9 0-1.1-.9-.7-.8.4-.5.1.5-.8 1-.8 2.3-1.3 2.9-.9.6.3.7.1.3-.5-.3-.6.1-1.5 1-2 1.5-.8 1.5-1 0-1.5-1.1-.5-1.5-.3-1 .5.4.7.3.8-.5.4-1.5-1-.5-2.6 1.7-2.6 1.3 0 1.3-.2-.4-1.5-1.8-1.3-1.8-1.4.5-.8 2.2.6 2.3.5 1-.9-.7-.9-1.8-1.3-2.3-1-.5.3-.1-.6 1-2 1.2-1.6 2.6-2.4 3.9-2.1 1.8.4 1.7.3-.3-.9l-2.3-1.4 2.3-1.9c1.3-1.1 1.7-1.3 1.1-.5-1.7 1.8-1.6 2.7.1 2.7.8 0 1.2-.6.9-1.4-.3-.7.1-1.3.8-1.3.8-.1.3-.7-1.1-1.5l-2.5-1.4 2.5-.1c2 0 2.2-.2 1-1-.8-.5-1.1-1-.6-1 .5 0 .3-.7-.4-1.5-1.1-1.3-1-1.4.4-.9 1 .4 1.8 0 2.2-1 .3-.9 1.1-1.3 1.8-.9.8.4.8.2-.1-.7-1.2-1.3-.7-4.3.6-3.6.4.3.8-.5.8-1.6.2-1.6-.1-1.8-1-.9-.6.6-1.6 1.1-2.2 1.1-.5 0-.2-.5.8-1.1.9-.6 1.5-1.5 1.1-2.1-.4-.6.2-.8 1.7-.3 1.7.4 2 .4 1-.4-.8-.5-1.5-1.9-1.6-3-.1-1.6.2-1.8 1.6-1.1 1.4.8 1.6.6 1.1-1.2-.3-1.3-.1-1.9.6-1.5 1.6 1.1.8-2.3-.9-3.4-1-.8-.8-.9.8-.4 1.9.5 2.2.3 1.6-1.1-.5-1.4-.3-1.6 1.3-1.1 1.7.6 1.7.6.2-.6s-1.5-1.4 0-2.4c1.4-1 1.3-1.1-.8-.7l-2.5.5 2.5-1.4c1.4-.9 2.8-1.3 3.2-1.1.3.2.9 0 1.2-.5.3-.5-.8-.7-2.4-.6-1.6.1-2.7-.1-2.4-.6.3-.5 1-.7 1.5-.3.6.3.9-.2.7-1.2-.2-1.3.4-2 2-2.2 2.6-.4 2.9-1.7.5-3.1-1.7-1-1.7-1-.1-1.1.9 0 2-.5 2.4-1.2.4-.7.3-.8-.4-.4s-1.2.2-1.2-.3c0-.6.4-1.1.8-1.1s.8-.9.9-2c.1-1.3-.2-1.8-1-1.3-.7.4-.7.1.1-1 .8-.9 1.1-2 .8-2.5-.3-.5.1-.9.9-.9 1.1 0 1.2.5.4 2.1-.8 1.7-.6 1.6.8-.3 2-2.8 2.7-6.1 1.3-6.1-.7 0-.7-.6-.1-1.8.7-1.3.7-2.2 0-2.9-.6-.6-.5-1 .5-1 .8 0 1.2.5.9 1.1-.4.6.1.5 1-.3 1.8-1.4 2.3-2.6.8-1.6-.5.3-1.2.1-1.6-.5-.4-.6-1.2-.7-1.8-.3-.7.3-.4-.3.6-1.5 1.1-1.2 1.6-2.6 1.2-3.4-.6-1-.5-1.1.6 0 1.9 1.7 2.5 1.5 2.6-1 .2-1.6 0-1.9-.6-1-.7 1.1-1 1-1.4-.3-.4-1-.3-1.4.4-1 .6.4.9 0 .7-1.1-.2-1 .2-1.9.9-1.9.6 0 1.5-.4 2-.9s.3-.6-.4-.2c-.8.4-1.3.1-1.3-.8 0-.8.8-1.7 1.8-1.9 1.5-.4 1.5-.5-.2-.6-1.6-.1-1.7-.3-.5-1.8 1-1.1 1-1.4.2-.9-.7.4-1.3.3-1.3-.3 0-.5.6-1.2 1.3-1.4.8-.4.8-.6-.2-.6-1.1-.1-1-.5.5-1.6 1.9-1.5 1.9-1.5-.1-.9-1.7.5-1.7.3.4-1.6l2.5-2.1-3 .5c-1.6.4-2.3.3-1.6 0 .6-.3 1-1 .7-1.5-.4-.5 0-.6.8-.3s1.8 0 2.3-.7c.4-.7.3-1-.3-.6s-1.4 0-1.7-.9c-.4-1.2-.2-1.5.9-1 .8.3 1.5.2 1.5-.3 0-1.6-1.3-2-3.4-1-2 1-2 .9-.2-.5 1-.9 2.2-1.3 2.6-1.1.4.3 1.4-.3 2.1-1.3 1.3-1.5 1.2-1.6-.3-.3-1.3.9-1.8 1-1.8.2 0-.7-.5-.9-1.2-.5-1 .6-.9.3 0-.8.8-.9 1.9-1.5 2.6-1.2.7.3 1.3-.2 1.3-1.1 0-1.1-.6-1.3-2.1-.9-1.6.5-1.8.3-1-.5.6-.7 2-1.3 3.2-1.4 1.1 0 1.9-.5 1.6-.9-.3-.4-1.2-.4-2.2-.1-1.4.6-1.5.4-.5-.9.7-.8 1-1.8.6-2.2-.4-.4.1-.4 1.1 0 1.4.5 1.7.4 1.2-.4-.4-.7-1.5-1.2-2.4-1.3-1.2 0-1.1-.3.6-.9 1.2-.5 2.2-1.5 2.1-2.2 0-1-.2-1-.6-.1-1 2.6-2.1 1.2-1.3-1.7.8-2.8.6-3.4-1.3-3.1-.5.1-.6-.3-.2-.9.4-.6 1.6-.8 2.8-.5 1.2.2 1.6.2.9-.1-.6-.3-.9-1.1-.5-1.7.4-.7 0-.8-1.1-.4-1.2.5-1.5.3-.9-.6.4-.6.8-2.3.8-3.7 0-1.6.6-2.5 1.6-2.4.9.1 1.6-.5 1.6-1.3s-.7-1.2-1.6-.8c-1.2.4-1.2.2.2-.9 1.3-1 1.5-1.5.5-1.9-1-.3-1-.7-.1-1.7.8-.9.9-1.9.2-3.1-.7-1.5-.6-1.7.6-1.3.8.3 1.2 1.1.8 1.8-.3.6-.2.7.3.3 1.4-1.3 1.2-6-.3-7.6-1.1-1-1.1-1.6-.2-2.7.6-.8.8-1.4.4-1.4s-.2-.7.5-1.5c1-1.2 1-1.5-.1-1.6-.8 0-.5-.4.6-.9 1.8-.8 1.8-.9.2-.9-1-.1-1.6-.5-1.2-1.1.3-.5 1.3-.7 2.3-.4 1 .4 1.3.2.7-.3-1.8-1.5-4.1-4.7-2.7-3.9.8.5 1.2-.2 1.2-2.4 0-2.1.4-2.9 1.2-2.4.7.4.8.3.4-.5-.6-.9-1.2-.9-2.4.1-1.5 1.2-1.5 1 .1-1.4 1-1.6 1.3-2.9.7-3.3-.6-.3-1-1.1-1-1.7 0-.6.7-.5 1.7.3 1.5 1.3 1.5 1.2.3-.8-.8-1.2-1.9-1.9-2.5-1.5-.5.3-.4-.2.4-1.1.7-.9.9-1.7.4-1.7-1.1 0-1.1-10 0-11.7.4-.7-.1-1.6-1-2.2-1.1-.6-1.3-1.1-.5-1.1.7 0 1-.5.6-1.2s-.3-.8.4-.4 1.2.3 1.2-.3c0-.5-.6-1.2-1.2-1.5-.7-.4-.3-.4 1-.2 1.2.2 2 0 1.6-.5-.3-.5-1.2-.9-2.1-.9-1.4 0-1.4-.2.1-1.9s1.5-2 .2-3.4c-1.8-1.7-1.1-2.8 1.2-2 1.4.4 1.5.3.2-.5-.8-.6-1.7-.9-2.1-.7-.6.4-.4-6.2.2-7.5.6-1.4.4-3.6-.6-4.2-.6-.5-.4-.8.5-.8.9-.1.5-.6-1-1.6l-2.5-1.4 3.3.4c2.8.4 3.1.2 2.1-1-.6-.7-1.5-1.2-1.9-.9-.5.3-1.2 0-1.6-.6-.4-.7-.3-.9.4-.5.6.3 1.3.2 1.7-.4.3-.5.2-1-.2-1-.5 0-1.4-1-2.2-2.3-1.3-2.1-1.3-2.1.5-.5 1.9 1.6 2 1.6 2-.2 0-1-.3-1.7-.7-1.4-.4.2-1-.3-1.3-1.2-.3-.8-.2-1.3.2-1 .4.2.8-.9.7-2.5 0-2.8-.6-3.3-3.4-3-.7.2-1-.2-.6-.9s1.6-.9 2.7-.7c1.6.4 1.7.3.7-.9-.6-.7-1.5-1.1-2-.8-.5.3-.6-.2-.3-1 .3-.9.2-1.6-.3-1.6s-.9-.9-1-2c-.2-2.2 1.2-2.7 2.3-.8.5.7.3.8-.5.3-1.9-1.1.3 2.8 2.5 4.6 1.6 1.3 1.7 1.2.2-1.1-.9-1.4-1.4-3.3-1.3-4.3.2-.9 0-1.5-.3-1.3-.4.2-1.8-.7-3.1-2-1.9-1.8-2.1-2.2-.7-2 1 .1 2.1.9 2.6 1.6.5.8 1.1 1.2 1.5.9.3-.3-.6-1.7-2-3.1l-2.5-2.5 2.8.4c2.5.3 2.6.3.5-.6-2.6-1.2-2.8-2.1-1-4 1-1.1 1-1.3 0-.7-.8.5-1.3.1-1.3-.9s-.5-1.3-1.2-.9c-.9.5-.9.2.1-.9 1.1-1.4 1.1-2 .1-3.2-.7-.8-.9-1.5-.5-1.5s1.4.8 2.2 1.7c1.3 1.7 1.3 1.6.4-.3-.7-1.5-.7-2.5.2-3.4 1-1.2.9-1.2-.5-.1-2.1 1.5-2.4.2-.5-1.8.9-1 .9-1.2 0-.7s-1.1-.2-.8-2.4c.3-2.3 0-3-1.3-3-1.2 0-1.3.3-.4 1.2.7.7 1.2 1.6 1.2 2.1s-.7.1-1.6-.7c-.8-.9-1.2-2.1-.8-2.7.4-.7-.1-1.8-1.1-2.6-1.2-.8-1.4-1.3-.6-1.3.8 0 1.9.7 2.6 1.7.9 1.3 1.4 1.3 2 .3.6-.9.4-1.1-.4-.6-.8.6-1.1.2-.9-1 .2-1.2-.3-1.9-1.4-1.9-1 0-2.3-.7-3-1.5-1.1-1.2-1.1-1.2.5-.1 1.4 1.1 1.7 1.1 1.7-.2 0-.8-.3-1.7-.7-2-.5-.2-.3-.2.4-.1.7.2 1.5-.2 1.9-.8.4-.6.3-.8-.3-.5-.6.4-1.3 0-1.7-.8-.3-.8 0-1.5.7-1.5.7-.1.1-.7-1.2-1.4-1.9-1-2-1.4-.8-1.9 1.7-.6 1.6-4.3-.1-4-.6.1-1.3-.4-1.6-1.3-.3-.8-.2-1.3.3-1 .5.3 1.5-.2 2.2-1.2 1.3-1.6 1.3-1.6-.5-.2-1.8 1.4-1.9 1.3-1.3-.3.4-1.1.1-1.7-.9-1.7-.8 0-1.3.4-1 .8.3.5-.1.9-.9.9-1.1 0-1.2-.4-.4-1.3.5-.6.6-1.4.2-1.6-.4-.3-.2-.3.5-.2.6.2 1.2-.4 1.2-1.2 0-1.1-.7-1.4-2.2-1-1.3.3-1.7.3-1 0 .6-.3 1.2-1.2 1.2-1.9s.6-1.6 1.3-1.8c.6-.3.2-.6-1.1-.6-2.2-.1-2.3-.2-.6-1.9 1.6-1.5 1.6-1.7.2-2-2-.4-2.8-3.4-1.7-5.5.6-1 .5-1.8-.2-2.3-.8-.4-.9-.3-.5.4s.2 1.2-.3 1.2c-.6 0-1.1-1-1.1-2.3 0-1.8-.2-1.9-1-.7-1.3 2.1-1.3.4.1-2.2 1-1.8.8-1.9-1.3-1.4-1.2.3-1.8.3-1.1 0s.9-1.3.6-2.2c-.4-1.4-.3-1.4.5-.3.8 1.1 1 .8.9-1.1-.1-1.6-.7-2.4-1.5-2.1-.8.4-1-.1-.5-1.3.6-1.7.5-1.8-1.2-.4s-1.8 1.4-.6-.8c1.2-2.3.4-2.9-1.7-1.2-.9.7-.9.7-.2-.2 1.4-1.6 1.3-3.1-.2-2.2-.7.4-.8.3-.4-.5.6-.9 1.1-.9 2.2 0 .9.7 1.4.8 1.4.1 0-.6-1-1.4-2.1-1.7-1.7-.6-1.9-.9-.8-1.6 1-.6 1.1-.9.2-.9-.7 0-1.3-.5-1.3-1.1 0-.5.4-.8.9-.5 1 .7.9-2-.2-3-1.2-1.2-.8-2.6.6-1.8.6.4.3-.2-.7-1.4-1.3-1.5-2.3-1.9-3.1-1.2-.8.7-1.2.5-1.2-.5 0-.8.7-1.5 1.6-1.6 1 0 .8-.3-.6-.9-1.5-.6-2.1-1.5-1.7-2.5.3-.8 1.1-1.2 1.7-.8.6.3.7.1.3-.5-.4-.6-1.4-.8-2.2-.5-1.4.5-1.5.3-.5-1.5 1.5-2.9 1.4-3.7-.5-2.2-1.2 1.1-1.5 1.1-1.2-.1.2-.8-.2-1.3-.8-1.2-.6.1-1.1-.4-1.1-1.2 0-1.1.5-1.2 2.1-.4 1.9.9 2 .9.4-.4-1-.8-1.8-1.9-1.8-2.6 0-.6-.4-1.1-.8-1.1-.5 0-1.4-1.1-2-2.5-1.4-3.1-1.5-4.6-.2-2.5.5.8 1.1 1.2 1.3 1 .2-.3-.5-1.9-1.5-3.5-1.1-1.7-1.8-2.2-1.4-1.3.3 1 0 2-.7 2.4-.7.4-.9.4-.5 0 .4-.5.3-1.9-.3-3.3-.6-1.6-.5-2.2.1-1.8.6.3.7-.1.4-.9-.3-.9-1.1-1.6-1.6-1.6-.7 0-.6-.5.1-1.3 1.4-1.7.4-2.8-1.7-1.9-1.5.5-1.5.4-.3-1.2 1.2-1.4 1.2-1.9.1-2.9-1-1-1.2-.9-.7.4.3.9 0 1.6-.7 1.6-.8 0-1-1.1-.8-2.9.4-2.4.2-2.7-1.4-2.1-1.7.6-1.7.5-.5-1s1-2-1-3.8c-1.3-1.1-1.8-1.8-1.1-1.4.6.3 1.2.1 1.2-.4 0-.6-.4-1.1-1-1.1-.5 0-1-.5-1-1.1 0-.5.4-.7 1-.4.6.4.7-.1.3-1.1-.5-1.4-.8-1.3-2 .7-1 1.6-1.2 1.8-.8.5.3-1.1-.2-2.7-1.2-3.8-1-1.1-1.3-1.9-.8-1.8 2.3.5 2.6-.1.8-1.8-1-.9-1.4-1.4-.8-1 .6.4 1.1-.1 1.1-1.1 0-1.2-.5-1.7-1.4-1.3-1.1.4-1.3-.1-.7-1.9.4-1.6.3-2-.3-1.1-.7 1.1-1 1-1.6-.3-.3-1-1.1-1.3-1.8-.9-1 .6-1 .4 0-.8 1-1.3 1-1.8.1-2.4-.8-.5-.9-.3-.4.6.5.9.4 1.1-.4.6-.9-.6-.9-1.1 0-2.2s.8-1.4-.7-1.5c-1.1-.1-2.3-.1-2.7 0-.5.1-.6-.3-.3-.8.4-.5.2-1.2-.3-1.5-.5-.4-.8-1.7-.5-3.1.2-1.3 0-2.7-.6-3-.6-.4-.7-1.1-.4-1.7.4-.5-.4-.4-1.7.2-1.3.7-2.1.9-1.7.5.4-.5.3-1.4-.3-2.1-.7-.8-.6-1.4.2-2 .7-.4.9-.3.5.4-.3.6-.2 1.3.3 1.6.5.4.8-.2.7-1.1-.2-1-.8-1.8-1.4-1.8-1.2 0-2.6-1.3-2.8-2.6-.3-2.2-.5-2.3-1.4-.9-.7 1.1-1 1.1-1 .2 0-.7-.5-1-1.1-.6-.8.4-.8.1-.1-1.3.7-1.2.7-2.5.1-3.6-.6-.9-.7-2.3-.4-3 .4-.6-.1-.3-1 .8-1.7 2-1.7 2-1.1 0 .4-1.4 0-2.5-1.3-3.4-1.1-.8-1.7-2-1.4-2.8.4-.9 0-1.1-1.3-.7-1.8.5-1.8.5-.1-.9 1.8-1.5 1.7-1.6-.4-2.2-1.3-.4-3-1.5-3.9-2.3-1.3-1.4-1.3-1.5.8-1 1.2.3 2 .2 1.6-.3-.3-.5-1.5-.9-2.7-.9-1.8 0-1.9-.2-.7-1 1.3-.9 1.3-1 0-1.1-.8-.1-1.8-.1-2.2 0-.5 0-.7-.5-.5-1.2.1-.6-.3-1.1-.9-1-.6.1-1.1-.4-1.1-1.2 0-.8.4-1.2.8-.9 1.6 1 1.8-1.4.2-2.7-1.2-1-1.4-1-.9-.2.4.8.1 1.3-.9 1.3-.8 0-1.8-.7-2.1-1.5-.4-.8-1.1-1.2-1.7-.8-.6.4-.7.1-.2-.7.6-1 1.1-.9 2.1.5 1.2 1.6 1.3 1.6 1.1-.3 0-1.1-.4-1.9-.8-1.6-.4.2-1 0-1.4-.6-.4-.6-1.1-.7-1.7-.4-.7.4-.8.2-.4-.5.4-.6 1.1-.9 1.6-.6.5.3 1.1.1 1.4-.4.4-.5-.4-.8-1.7-.7-1.4.2-2.4-.2-2.4-1 0-.6.7-1 1.4-.7.8.3.2-.7-1.4-2.4-1.5-1.6-3.1-2.7-3.5-2.5-1.2.5-.9-1.3.5-2.8.6-.8.1-.6-1.2.5-2.2 1.8-2.4 1.8-1.8.2.4-1.2.1-1.7-1.1-1.7-1.5 0-1.5-.2-.2-1s1.3-1-.2-1c-1.2 0-1.5-.5-1.1-1.7.4-1.1.3-1.4-.5-.9-.7.4-1.2.2-1.2-.5 0-.8-.4-.8-1.5.1-1.3 1.1-1.4 1-.9-.5.6-1.4.4-1.6-.7-1-1.1.7-1.1.5.1-1 .9-1.1 1-1.6.3-1.1-.9.5-1.3 0-1.3-1.3 0-1.9-1-2.6-3.2-2.2-.5 0-.8-.4-.8-1 0-.5-.5-.7-1.2-.3-.7.5-.8.3-.2-.7 1.6-2.6 1.4-4.6-.3-2.4-1.5 1.9-1.5 1.9-.8-.5.7-2.2.6-2.3-.9-1.1-1.5 1.3-1.6 1.2-.6-1.3.5-1.5.6-2.5.1-2.2-1.2.8-3.3-1.9-2.3-2.9.4-.5.1-.5-.6-.1-1 .6-1 1.1-.2 2.1s.8 1.5-.1 2.1c-.7.4-.9.3-.5-.4.3-.6.2-1.3-.4-1.7-.6-.4-.7-1.1-.4-1.7.5-.7.2-.9-.8-.6-.8.4-1.5.1-1.5-.7 0-.7.7-1.1 1.6-.8 1.1.3 1 0-.3-.7-1.4-1-2-.9-2.8.1-.7 1-.8.8-.3-.8.3-1.2.1-2.5-.6-2.9-.8-.5-.9-.3-.4.6.5.8.4 1.1-.3.6-.5-.3-1.3 0-1.6.6-.3.7-.3.1.1-1.5.4-2.2.2-2.6-1.1-2.1-.9.4-1.6.3-1.4-.2.4-1.6-1.3-5.4-2.5-5.4-.8 0-.8.3.1 1.2.7.7 1.2 1.6 1.2 2.1s-.7.1-1.6-.8c-.9-.8-1.3-2.2-1-3 .4-1-.1-1.5-1.4-1.5-1.1 0-2-.4-2-1 0-.5-.8-.7-1.7-.4-1.6.5-1.6.4-.3-.6 1.1-.9 1.2-1.3.2-1.7-.6-.2-.9-1-.5-1.5.4-.7-.2-.9-1.5-.6-1.2.4-2 .2-1.7-.2.3-.5.1-1.1-.5-1.5-.6-.4-.8-1.1-.5-1.6.4-.5.1-.9-.5-.9s-.8-.5-.4-1.1c.4-.7-.2-.6-1.7.2-2.1 1-2.2 1-1.2-.2.9-1.1.8-1.9-.3-3.3-.8-1.1-1.4-1.4-1.4-.8 0 .7-.5 1.2-1.1 1.2-.6 0-.8-.7-.5-1.6.4-1.2.2-1.5-.9-1-1.3.4-2.1-.6-1.2-1.7.6-.9-2.8-3.7-4.5-3.7-1 0-1.6-.5-1.3-1 .3-.6.2-1-.4-1-.5 0-1.1.3-1.4.7-.2.5-.3.3-.1-.2.1-.6-.5-2-1.3-3-1.3-1.7-1.5-1.7-1-.3.4 1 .2 1.8-.3 1.8-.6 0-1-.7-1-1.5s-.4-1.5-.9-1.5-1.1-.9-1.4-2c-.3-1.1-.9-2-1.4-1.9-2 .4-2.4-.2-1.2-1.8 1.3-1.5 1.1-1.5-1.3.1-2 1.3-2.8 1.4-3.4.5-.4-.7-.3-.9.3-.6.6.4 1.3 0 1.7-.8.3-.8.2-1.4-.2-1.4-2 .3-2.5-.2-1.2-1.2 1.2-.8 1-.9-.7-.4-1.5.4-2.6 0-3.6-1.5-.9-1.3-1.7-1.7-2.1-1.1-.9 1.4-4.6-.9-4.6-2.8 0-1.2.3-1.1 1.3.2.9 1.3 1.6 1.4 2.7.6 1.3-1 1.3-1-.1-.6-.8.3-2.1-.3-2.7-1.4-.7-1-2.1-1.9-3.3-1.9-1.1 0-1.8-.4-1.4-.9.3-.5 0-1.3-.6-1.7-.7-.4-.9-.3-.6.3.4.6.1 1.3-.7 1.6-1 .4-1.2 0-.9-1.4.3-1.1 0-1.9-.6-1.9-.7 0-.9.5-.5 1.2.5.7.3.8-.5.4-.7-.5-1-1.4-.7-2.2.3-.8.1-1.4-.4-1.4-.6 0-1 .6-1 1.2-.1.7-.7.2-1.5-1.2-.9-1.5-1.4-1.9-1.5-1 0 1.3-.2 1.3-.9 0-.6-.8-.7-1.8-.5-2.2.3-.4 0-.8-.6-.8s-.8-.5-.4-1.2.3-.8-.4-.4c-.6.4-.9 1.3-.5 2.1.3.8.1 1.5-.4 1.5s-1-.6-1.1-1.3c-.3-4.2-2-7.5-1.8-3.6 0 1.2-.5 2.3-1.2 2.5-.7.1-.8 0-.3-.2.6-.3.7-1.2.4-2-.5-1.3-.8-1.3-1.5-.2-.7.9-.8.7-.5-1 .3-1.2.1-2-.3-1.7-.5.3-1.3-.3-1.9-1.2-.6-1-1.1-1.3-1.1-.7 0 .5.5 1.5 1.2 2.2.7.7.9 1.2.5 1.2s-1.7-1.5-2.8-3.3c-1.2-1.7-1.9-2.4-1.6-1.5.4 1 .2 2-.4 2.3-.5.4-.9.3-.8-.2.4-2.5-.1-3.5-1.5-2.4-1.1.9-1.2.6-.8-1.6.4-2.7.4-2.7-1.1-.8-1.6 2-1.6 1.9-1.1-.5.2-1.4.2-1.9-.2-1.3-.4 1-1.2.9-3.4-.2-1.5-.8-3.1-1.1-3.5-.7-.3.4-.6.2-.5-.3.6-2.6-.2-3.6-2.2-3.3-1.8.2-2.2-.1-1.9-1.7.3-2 .3-2-1.9 0-1.5 1.4-2.1 1.5-1.8.5.2-.8-.2-1.4-.8-1.3-.6.1-1.1-.5-1.1-1.3 0-1.1.4-1.1 1.9.3 1.1.9 1.8 1.1 1.8.5 0-.7-.5-1.2-1.1-1.2-.5 0-.7-.5-.3-1.2.4-.6.3-.8-.3-.5-.6.4-1.6 0-2.3-.8-.7-.8-1.6-1.2-2.1-.9-.5.2-2.2-.2-3.9-1.1-1.6-.8-3.2-1.5-3.5-1.5-2.1.1-2.5-.1-2.5-1.1 0-.8.4-.8 1.4 0 1.1.9 1.6.9 2.2 0 .4-.7.3-.9-.4-.5-.6.3-1.3.2-1.7-.3-.3-.6-1.1-.8-1.8-.5-.7.2-1.9-.7-2.7-2-.7-1.4-1.7-2.3-2.2-2-.5.3-1.7 0-2.6-.8-1.5-1.2-1.6-1.1-.3.5 1.2 1.5 1.2 1.7-.3 1.1-.9-.3-1.6-1.6-1.7-2.8-.1-1.9-.2-1.9-.9.4l-.8 2.5-.1-2.4c-.1-1.8-.5-2.2-2-1.8-1.2.3-1.8 0-1.5-.7.2-.6-.5-1.2-1.6-1.3-1.2-.1-3-1.2-4.1-2.5-1.1-1.3-1.8-1.8-1.5-1.1.4.7-.1 1.1-1.4 1-2.1-.1-2.9-1.7-.8-1.7.6 0 .8-.3.5-.6-.4-.4-1.3-.1-2.2.6-1.3 1.1-1.4 1-.9-.6.5-1.5.4-1.6-.6-.7-.9.9-1.9.4-4.2-2.3-1.7-1.9-3.4-3.1-3.9-2.8-.6.3-1.7 0-2.6-.8-.9-.7-1.4-.8-1-.2.4.7 0 1.4-.8 1.8-.8.3-1.7 0-2.1-.6-.5-.7-.2-.8.6-.3.9.5 1.1.4.6-.3-1-1.6-3.9-1.5-3.1 0 .4.7 0 .4-.9-.6-.8-1-1.3-2.3-.9-2.9.3-.6.1-.7-.5-.3-.5.3-1.2 0-1.5-.6-.2-.7-.8-1-1.2-.6-.4.4-.2 1.5.6 2.5 1.3 1.5 1.2 1.5-1.2 0-1.4-1-2.9-1.4-3.2-1-.4.3-.7.1-.7-.6 0-.8.6-1.1 1.6-.7.9.3 1.2.2.9-.5-.4-.6-1.3-.8-2.1-.5-.8.3-2.5 0-3.9-.6-1.8-.8-2.2-1.4-1.4-2.4.8-.9.5-1.1-1-.7-1.2.3-2.1.1-2.1-.5 0-1.2-1.8-1.1-3.9.2-1 .7-1.2.3-.7-1.5.3-1.3.3-1.8 0-1.2-.3.7-1.3 1.3-2.1 1.3-1.3 0-1.4.2-.2 1.7 1.3 1.6 1.2 1.7-.3.5-1-.8-1.4-2-1.1-3 .6-1.5.5-1.5-1-.3s-1.7 1.2-1.1-.3c.5-1.2.2-1.5-1.2-.9-1.3.5-1.5.3-.9-.8.7-1.1.5-1.1-1 .1-1 .8-1.6 1-1.2.4.4-.7 0-1.5-.9-1.8-.9-.3-1.2-1.1-.8-1.8.6-1 .3-.9-.9 0-.9.8-2.1 1.1-2.7.7-1.8-1.1-5.1-1.4-4.5-.4.4.5 1.1.7 1.6.4.5-.4.9-.1.9.4 0 .6-.4 1.1-.8 1.1-1.2 0-5.7-5.4-5.4-6.4.2-.5-.3-.5-1 0-2.4 1.8-6.9 1-8.9-1.6-1.2-1.5-1.7-1.8-1.3-.7.5 1.3.2 1.6-.9 1.1-.9-.3-1.4-1.3-1.1-2.2.3-.9-.2-.6-1.1.8l-1.6 2.5.6-3c.5-2.6.5-2.8-.7-1.4-.7.9-2.2 1.9-3.3 2.3l-2 .6 2-1.6c2-1.6 2-1.6-.4-.9-1.3.4-2.1.3-1.8-.2.3-.5-.3-.9-1.3-.9s-1.7.4-1.4.7c.2.4-.1 1.1-.7 1.5-.7.4-.9.3-.5-.4.3-.6.2-1.3-.4-1.7-.6-.4-.7-1.1-.4-1.7.4-.7.2-.8-.5-.4-.6.4-.9 1.2-.6 1.7.3.5-.1.6-1 .3-1-.4-1.5-1.4-1.2-2.5.3-1.1.1-1.7-.4-1.3-.5.3-.9 1.1-.9 1.9 0 .7-.7 1.5-1.5 1.9-1.3.4-1.3.2-.5-1.4 1.4-2.6 1.3-3.5-.3-2.1-1 .8-1.9.7-3.2-.3-1.1-.8-2.5-1.2-3.2-.9-.7.3-1.3 0-1.3-.6 0-.8-.4-.8-1.4.1-.8.7-1.1 1.7-.8 2.3.7 1.2-3-1.5-4-3-.5-.6-.8-.5-.8.2s-.5 1.3-1.1 1.3c-.5 0-.7-.5-.4-1 .3-.6-.1-1-1-1s-1.3.5-1 1.1c.8 1.2-3.7-1.2-4.7-2.6-.4-.5-.4-1.3-.1-1.9.3-.5.1-.6-.6-.2-.6.4-.9 1.1-.6 1.6.3.5 0 1.2-.6 1.6-.8.4-.9.3-.5-.4s.2-1.2-.4-1.2c-.6 0-.8-.6-.4-1.3.6-1 .4-1-.7 0-1.5 1.5-3.3 1.8-2.5.5.3-.5-.1-.9-.9-.9s-1.2.4-.9.9c.3.4 0 .8-.5.8-.6 0-1.1-.6-1.1-1.4 0-1-.9-1.4-2.7-1.2-1.6.2-3.1-.1-3.4-.6-.3-.5-1.7-.5-3.3.2-1.5.5-2.4 1.4-2.1 2 .4.6-.1.7-1.1.3-1.1-.4-1.3-.8-.6-1.1 1.4-.4 1.6-2.8.2-3.7-.6-.4-.7.1-.3 1.1.5 1.4.3 1.5-1.6.5-1.2-.7-1.8-1.7-1.5-2.3.4-.7.3-.8-.5-.4-.6.4-.9 1.2-.6 1.7.4.5-.1.9-.9.9-.9 0-1.5-.3-1.3-.8.1-.4-.2-.8-.8-.9-.6-.1-.8.6-.7 1.5.3 1.1-.2.9-1.5-.7-1.9-2.3-6-4-4.7-2 .3.5.9.7 1.4.4.5-.3 1.2 0 1.6.6.5.9 0 1-1.6.6-1.3-.3-3.1-.1-3.9.6-1.4 1.1-1.4 1-.2-.6 1.4-1.7 1.3-1.8-.5-1.5-1.2.2-1.8-.2-1.6-1 .1-.8-.2-1.1-.8-.7-.6.3-.8 1-.5 1.5.3.4-.2 1-1 1.3-1 .4-1.2.1-.8-1.1.6-1.5.5-1.6-1.2-.2-1 .8-1.6 1-1.3.5.4-.6.2-1.7-.4-2.5-.8-1.3-.9-1.3-.5.1.3.9.1 2.2-.4 3-.7 1.2-.9 1.1-.9-.2 0-1-1.1-1.9-2.7-2.2-2.5-.5-2.6-.4-1 .8 1.7 1.2 1.6 1.3-.7 1.1-1.3 0-2.2-.4-1.9-.9.2-.4-.3-.7-1.2-.7-.9 0-1.4.4-1.1.8.2.4-.4.9-1.5.9-1 .1-1.9-.3-1.9-.8 0-.6.4-.8.8-.5.4.2 1.9-.4 3.2-1.5 1.8-1.4 2-1.7.6-1.2-1.3.4-1.7.3-1.2-.5.3-.6.1-1.4-.5-1.8-.8-.5-.9-.3-.4.6.6 1 .3 1.2-1.1.7-1.8-.7-1.8-.6-.2.6 1 .8 1.5 1.7 1.1 2.1-.3.3-1.4-.1-2.3-.9-1-.9-2.9-1.8-4.3-2.1-2.1-.3-2.5 0-2.4 1.5 0 1.1.6 1.7 1.2 1.3 1.8-1.1 4.4-1.2 5-.2.4.6-.7 1-2.5 1-2.2 0-2.9.4-2.4 1.2.5.9.2.9-.9-.1-.9-.7-1.7-2.1-1.7-3.1s-.7-2-1.5-2.4c-1.3-.5-1.4-.2-.4 1.6.9 1.7.9 2.3 0 2.6-.6.2-.8.9-.4 1.5.4.7-.1.6-1-.2-1.8-1.4-1.3-3.6.5-2.5.7.4.8.2.4-.4-1.2-2.1-4.3-3.3-4.3-1.7 0 .7.7 1.1 1.6.8 1-.3 1.2-.2.5.4-.6.4-1.3 1.6-1.7 2.5-.7 2.1-3.7 1.3-3.7-.9 0-1.3-.3-1.3-1.7-.2-1.5 1.1-1.4 1 .1-.9 1.9-2.2 3.2-3 2.2-1.3-.3.4.2 1.7 1 2.7 1.4 1.8 1.5 1.7.9-1.1-.8-3.8-1.1-4.1-3-2.5-.9.7-2.2.9-3.2.5-2.8-1.2-4.3-1.4-4.3-.5 0 .5.5 1.2 1 1.5.6.3 1 0 1-.7 0-.9.3-.9 1 .2 1.4 2.2 1.2 2.9-.9 2.7-1.1 0-1.7-.5-1.4-1.1.4-.5-.1-.7-.9-.3-1 .3-1.5 0-1.4-1 .1-1-.8-1.7-2.1-1.8-1.5-.1-2.3.4-2.3 1.4 0 1.1-.3 1.1-1.6-.5-1.4-1.8-1.5-1.8-.9.6.4 1.4.3 2-.2 1.5-1.2-1.5-4.5-1.5-4-.1.3.7-.1 1.3-.8 1.3-1 0-1.1-.5-.4-1.8.5-1.1 1.6-1.6 2.4-1.3.8.4 1.5.2 1.5-.3 0-.4-2-.8-4.5-.8s-4.5.4-4.5 1c0 .5-.4.3-.9-.4-.8-1.2-1.1-.9-1.6 1.2-.4 1.5-1.1 2.7-1.6 2.7-.6 0-.5-.8.1-1.9 1.4-2.7 1.4-2.7-2.4-2.6-1.9 0-3.2.3-3 .7.2.4 0 .9-.6 1.3-.5.3-1-.1-1-1 0-1.3-.4-1.4-2-.5-1.4.8-2 .8-2 0 0-.7-.5-1-1.1-.8-1.8.6-1 2.3 1.1 2.3 1.1 0 2 .3 2 .7 0 3.1-.1 3.2-1 1.8-.5-.8-1-1.1-1-.6 0 .6-.5.5-1.2-.2s-1.6-1.2-2.2-1.2c-.6 0-.5.5.2 1.2s1.2 1.7 1.2 2.2c0 .6-.7.3-1.5-.7-.7-1.1-1.1-2.5-.9-3.2.7-1.6-1.2-2.9-2.1-1.5-.4.6-1.1.8-1.6.4-.5-.3-1.7 0-2.6.8-1.5 1.1-1.6 1.1-1-.4.5-1.4.2-1.6-1.7-.9-1.2.5-2.9.5-3.8 0-1.1-.6-1.9-.5-2.4.2zm13.6 3.4c-.6 1.5-1.3 2.5-1.6 2.3-.2-.3.1-1.7.7-3.2.7-1.4 1.4-2.4 1.6-2.2.2.2-.1 1.6-.7 3.1zm15.2-1.3c-.7.7-1.2.8-1.2.2 0-1.4 1.2-2.6 1.9-1.9.2.3-.1 1.1-.7 1.7zm21.3.8c-.3.5-1.1 1-1.6 1-.6 0-.7-.5-.4-1 .3-.6 1.1-1 1.6-1 .6 0 .7.4.4 1zm65.9 5.8c.3.5-.1.9-.9.9s-1.2-.4-.9-.9c.3-.4.7-.8.9-.8.2 0 .6.4.9.8zm11.1 1.4c.5-.4.5-.2.2.5-.4.6-1.5 1-2.5.8-.9-.2-2.1-.4-2.7-.4-.5-.1-.3-.5.5-1.1.9-.5 1.9-.5 2.6 0 .6.6 1.5.6 1.9.2zM637 38c0 .5-.5 1-1.1 1-.5 0-.7-.5-.4-1 .3-.6.8-1 1.1-1 .2 0 .4.4.4 1zm-269.9 9.7c1.3 1.6 1.2 1.7-.3.4-1.4-1.1-1.8-1.1-1.8-.1 0 .8-.3 1.1-.6.7-.5-.5.3-2.7 1-2.7.2 0 1 .8 1.7 1.7zM665 48c0 .5-.2 1-.4 1-.3 0-.8-.5-1.1-1-.3-.6-.1-1 .4-1 .6 0 1.1.4 1.1 1zm9.5.9c.3.5.1 1.2-.5 1.6-.5.3-1-.1-1-.9 0-1.8.6-2.1 1.5-.7zm-324.8 3.6c0 .8-.5 1.1-1 .8-.5-.3-1.3.1-1.8.8-.5.9-1.1 1-1.6.4s-.7-.9-.4-.8c.2.1 1.3-.4 2.5-1.2 2.5-1.8 2.3-1.8 2.3 0zm336.8.4c.3.5.1 1.2-.5 1.6-.5.3-1-.1-1-.9 0-1.8.6-2.1 1.5-.7zM331 59.5c0 .8-.2 1.5-.4 1.5s-.6-.7-1-1.5c-.3-.8-.1-1.5.4-1.5.6 0 1 .7 1 1.5zm371 0c.5-.3 1.1-.1 1.4.4.4.5-.2.8-1.1.7-.9-.2-1.8-.8-1.9-1.5-.1-.6 0-.7.3-.1.2.5.9.8 1.3.5zM306.5 70.8c-.6.7-3.4-1.1-2.9-1.9.3-.5 1.1-.3 1.9.4.7.6 1.2 1.3 1 1.5zm420.9-1c.3.5-.1.9-.9.9s-1.2-.4-.9-.9c.3-.4.7-.8.9-.8.2 0 .6.4.9.8zm6.5 4.6c0 .6-.3.5-.6-.2-.2-.6-1-.9-1.5-.6-.7.4-.8.2-.4-.5.4-.6 0-1.4-.8-1.7-.9-.3-1.6-1.1-1.6-1.7 0-.6 1.1 0 2.5 1.3s2.5 2.8 2.4 3.4zm11.1 6.1c0 .5-.5.3-1-.5s-1-2-1-2.5c0-.6.5-.3 1 .5s1 1.9 1 2.5zm-462.3 1c0 .8-.4 1.5-.9 1.5-1 0-1.1-1.4-.1-2.3.9-1 1-.9 1 .8zM277 84c0 .5-.5 1-1.1 1-.5 0-.7-.5-.4-1 .3-.6.8-1 1.1-1 .2 0 .4.4.4 1zm484.6 3.8c.1.7 0 .8-.3.2-.2-.5-.9-.8-1.4-.4-.5.3-.9 0-.9-.6 0-1.5 2.3-.7 2.6.8zm11.4 6.7c0 .2-.9.3-1.9.2-1.1 0-1.8-.5-1.5-.9.4-.6 3.4 0 3.4.7zm3.4.3c.3.5-.1.9-.9.9s-1.2-.4-.9-.9c.3-.4.7-.8.9-.8.2 0 .6.4.9.8zm-533.9 10c-.3.3-1.1 0-1.8-.7-.9-1-.8-1.1.6-.5 1 .3 1.5.9 1.2 1.2zm-8.9 5.4c.4.7.4 1-.1.6-.4-.4-1.5-.2-2.4.5-1.4 1.1-1.4 1-.2-.6 1.6-2 1.8-2.1 2.7-.5zm-15.8 12.3c-.3.3-.9-.2-1.2-1.2-.6-1.4-.5-1.5.5-.6.7.7 1 1.5.7 1.8zm-6.2 2.6c-1.5.9-1.6 1.3-.5 2.1s1 .9-.3.4c-1-.3-1.8-.1-1.8.5s-.5.7-1 .4c-1.1-.7 2.7-4.4 4.5-4.4.6 0 .2.4-.9 1zm616.8 6.4c-.4.8-.8 1.5-1 1.5-.2 0-.4-.7-.4-1.5s.4-1.5 1-1.5c.5 0 .7.7.4 1.5zm-624.9 2.3c-.3.3-1.1 0-1.8-.7-.9-1-.8-1.1.6-.5 1 .3 1.5.9 1.2 1.2zm-15.7 11.6c-.7.8-1.5 1.2-1.7 1.1-.5-.6 1-2.5 2-2.5.5 0 .4.6-.3 1.4zm657.9.8c-.3.8-.6.5-.6-.6-.1-1.1.2-1.7.5-1.3.3.3.4 1.2.1 1.9zm11.8 8.6c.9.6 1.9 3.2 1.2 3.2-.1 0-1-.9-2-2-1.6-2-1.2-2.7.8-1.2zm8 7.2c.3.5-.1 1-1 1s-1.3-.5-1-1c.3-.6.8-1 1-1 .2 0 .7.4 1 1zM169 164.4c0 .3-.4.8-1 1.1-.5.3-1 .1-1-.4 0-.6.5-1.1 1-1.1.6 0 1 .2 1 .4zm-8.6 7.7c-.3.5-1 .7-1.5.3-.5-.3-.7-1-.3-1.5.3-.5 1-.7 1.5-.3.5.3.7 1 .3 1.5zm-15.9 17.7c-.3.3-1.1 0-1.8-.7-.9-1-.8-1.1.6-.5 1 .3 1.5.9 1.2 1.2zm-16 18c-.3.3-1.1 0-1.8-.7-.9-1-.8-1.1.6-.5 1 .3 1.5.9 1.2 1.2zm789.9 15.1c-.4.3-.9 0-1.1-.7-.3-.6-1-.9-1.5-.6-.7.4-.8.2-.4-.5.6-.9 1.1-.9 2.2 0 .8.6 1.2 1.5.8 1.8zm17.3 23.7c-.3.3-1.2.4-1.9.1-.8-.3-.5-.6.6-.6 1.1-.1 1.7.2 1.3.5zm-841.1 8.1c-.3.4-.6.1-.6-.6s-.4-.9-1-.6c-.6.4-.7-.1-.3-1.1.6-1.5.7-1.5 1.5.1.6.9.7 1.9.4 2.2zm-14.1 23.1c-.3.3-1.1 0-1.8-.7-.9-1-.8-1.1.6-.5 1 .3 1.5.9 1.2 1.2zm-14 22.2c.3.5-.1 1-1 1s-1.3-.5-1-1c.3-.6.8-1 1-1 .2 0 .7.4 1 1zm923.6 54.8c-.9.3-.8.9.5 2.3 2 2.3 1.2 2.6-1 .4-1.7-1.7-1.1-4.9.7-3.8.8.5.7.8-.2 1.1zm17.6 55.7c0 .8-.4 1.2-.9.9-.5-.3-.6-1-.3-1.5.9-1.3 1.2-1.1 1.2.6zm-982.6 6c.1 1.6-1.7 1.7-3 .2-.9-1.2-.7-1.4.9-1.3 1.1 0 2.1.5 2.1 1.1zm986.3 19.6c-.3.5-1.1.9-1.7.8-.8 0-.8-.2.1-.6 1-.4 1-.8 0-2.1-1.2-1.5-1.1-1.6.4-.3 1 .7 1.5 1.7 1.2 2.2zm6 54.8c.3.5-.2 1.5-1.2 2.2-1.5 1.2-1.6 1.2-.5-.2.7-.9 1-1.9.6-2.2-.3-.4-.4-.7 0-.7.3 0 .8.4 1.1.9zm1.1 15.2c-.4.5-1.4.8-2.3.8-1.5-.1-1.5-.2.1-.6.9-.2 1.4-.9 1.1-1.5-.4-.7-.2-.8.5-.4.6.4.9 1.2.6 1.7zm-.7 58.4c-.3.3-.9-.2-1.2-1.2-.6-1.4-.5-1.5.5-.6.7.7 1 1.5.7 1.8zM24.1 616.7c1.3 1.6 1.2 1.7-.3.4-1-.7-1.8-1.5-1.8-1.7 0-.8.8-.3 2.1 1.3zm6.6 27.6c.4 2.1.3 2.1-1.1.2-.8-1.1-1.2-2.4-.9-2.8.7-1.2 1.6 0 2 2.6zm1.2 4.8c-1.2.7-1.2.9 0 .9.8 0 1.2.3.8.6-1 1-2.6-.6-2.1-2.1.4-.8 1.1-1.2 1.6-.9.6.4.5 1-.3 1.5zm969.8 3.4c0 .8-.4 1.2-.9.9-.5-.3-.6-1-.3-1.5.9-1.3 1.2-1.1 1.2.6zm-968.2.5c.3.6-.1.7-.9.4-1.8-.7-2.1-1.4-.7-1.4.6 0 1.3.4 1.6 1zm4.5 13.2c0 .4-.4.8-.9.8-.6 0-1.2-.4-1.5-.8-.3-.5.1-.9.9-.9s1.5.4 1.5.9zm2.5 11.6c-.3.3-1.1 0-1.8-.7-.9-1-.8-1.1.6-.5 1 .3 1.5.9 1.2 1.2zm943 24.2c-.3.5-1.1 1-1.6 1-.6 0-.7-.5-.4-1 .3-.6 1.1-1 1.6-1 .6 0 .7.4.4 1zm-12.2 26.5c-.3.9-.8 1.4-1 1.1-.3-.3-.2-.9.2-1.5.9-1.6 1.5-1.3.8.4zM61.5 732c-.3.5 0 1 .7 1 .9 0 .9.3-.2 1-1.2.8-1.1 1 .8 1 2.2 0 3 1.4 1.3 2.4-1.1.7-3.8-2.5-3.5-4.2.3-2 .4-2.2 1-2.2.3 0 .2.4-.1 1zm4.5 8c-1.2.8-1.2 1-.1 1 .8 0 1.2.3.8.6-.9.9-2.8-.6-2.2-1.7.4-.5 1.2-.9 1.8-.9.7 0 .6.4-.3 1zm30.5 52.8c-.3.3-1.1 0-1.8-.7-.9-1-.8-1.1.6-.5 1 .3 1.5.9 1.2 1.2zm838.5.6c0 .3-.4.8-1 1.1-.5.3-1 .1-1-.4 0-.6.5-1.1 1-1.1.6 0 1 .2 1 .4zm-836.9 2.9c-.1 1.2-1.5.9-1.9-.4-.3-.6.1-1 .8-.8.6.3 1.1.8 1.1 1.2zm50.1 61.2c.2-.3.5.2.5 1 0 1.9 0 1.9-2.3-.7-1.2-1.4-1.3-1.8-.3-1 .9.6 1.8 1 2.1.7zm737.4 1.1c.1.9 0 1.3-.4 1-.3-.4-.7-1.4-.8-2.2-.1-.9 0-1.3.4-1 .3.4.7 1.4.8 2.2zM154.5 864c.3.5.2 1-.4 1-.5 0-1.3-.5-1.6-1-.3-.6-.2-1 .4-1 .5 0 1.3.4 1.6 1zm696.6 27.3c-1 .9-1.1.8-.5-.6.3-1 .9-1.5 1.2-1.2.3.3 0 1.1-.7 1.8zM202 906.4c0 .2-.7.7-1.6 1-.8.3-1.2.2-.9-.4.6-1 2.5-1.4 2.5-.6zm26.8 19.8c-.2.7.3 1.2 1 1 .8-.1 1.1.2.7.8-.5.8-1.1.8-2.1-.1-.7-.6-1.1-1.5-.8-2 .8-1.3 1.4-1.1 1.2.3zM784 942.4c0 .3-.4.8-1 1.1-.5.3-1 .1-1-.4 0-.6.5-1.1 1-1.1.6 0 1 .2 1 .4zm-3 1.2c0 .8-1.9 1.3-2.4.6-.3-.5.1-.9.9-.9s1.5.2 1.5.3zM297.5 968c-.3.5-1.2 1-1.8 1-.7 0-.6-.4.3-1 1.9-1.2 2.3-1.2 1.5 0zm8.9 4.6c.3.8.2 1.2-.4.9-.6-.3-1-1-1-1.6 0-1.4.7-1.1 1.4.7zm395.1 11.2c-1 .9-1.5 1.2-1.1.5.3-.6.3-1.3-.1-1.6-.5-.2-.2-.2.5-.1.6.2 1.2-.2 1.2-.8 0-.6.3-.8.7-.4.4.3-.1 1.4-1.2 2.4zm-367.2-.3c-.3.9-.8 1.4-1 1.1-.3-.3-.2-.9.2-1.5.9-1.6 1.5-1.3.8.4zm362.7 2.3c0 .5-.7.9-1.5.9s-1.2-.4-.9-.9c.3-.4.9-.8 1.5-.8.5 0 .9.4.9.8zm-352 1.4c0 .5.6.6 1.3.2.6-.4.8-.3.4.1-1.2 1.4-3.5 1.4-4 .1-.3-.7.1-1.3.9-1.3s1.4.4 1.4.9zm4 2.8c0 .5-.2 1-.4 1-.3 0-.8-.5-1.1-1-.3-.6-.1-1 .4-1 .6 0 1.1.4 1.1 1zm9.4 2.6c.3.8.2 1.2-.4.9-.6-.3-1-1-1-1.6 0-1.4.7-1.1 1.4.7zm318.6-.4c0 .4-.4.8-.9.8-.6 0-1.2-.4-1.5-.8-.3-.5.1-.9.9-.9s1.5.4 1.5.9zm-310.6 3.3c-.4.8-.8 1.5-1 1.5-.2 0-.4-.7-.4-1.5s.4-1.5 1-1.5c.5 0 .7.7.4 1.5zm15 4.2c.5 1.3.4 1.4-.9.3-.8-.7-1.5-.9-1.5-.6 0 .4-.5.4-1 .1-1.5-.9-.2-2.5 1.5-1.9.7.3 1.6 1.3 1.9 2.1zm254.9 3.4c-.8.8-1.3.7-1.8-.2-.5-.8-.4-1 .3-.5.7.4 1.2.2 1.2-.5s.3-.9.7-.6c.4.4.2 1.2-.4 1.8zm-235.8 0c1.1 1.6.1 1.9-1.3.3-.7-.8-.8-1.4-.3-1.4s1.3.5 1.6 1.1zm217.5 4.5c0 .8-1.9 1.3-2.4.6-.3-.5.1-.9.9-.9s1.5.2 1.5.3zm-177 4.4c0 .5-.5 1-1.1 1-.5 0-.7-.5-.4-1 .3-.6.8-1 1.1-1 .2 0 .4.4.4 1zm150.7.5c0 .8-.4 1.2-.9.9-.5-.3-.6-1-.3-1.5.9-1.3 1.2-1.1 1.2.6zm5.3-.4c0 .5-.4.7-1 .4-.5-.3-1-.1-1 .4 0 .6-.5 1.1-1.1 1.1-.8 0-.8-.5.1-1.5 1.4-1.7 3-2 3-.4zm-16.5.8c.3.5.2 1.2-.3 1.5-.5.3-.9-.1-.9-.9 0-1.7.3-1.9 1.2-.6zm-101.6 1.8c-.3 2 .2 2.6 1.1 1.3.6-.9 1-1 1-.3 0 .6-.4 1.4-.8 1.7-1.3.8-3.5-1.1-2.8-2.3.8-1.3 1.7-1.5 1.5-.4zm70.1.7c0 .2-.8 1-1.7 1.7-1.6 1.3-1.7 1.2-.4-.4 1.3-1.6 2.1-2.1 2.1-1.3zm3.6 2.3c-1 1-1.9-.5-1-1.8.6-1.1.8-1.1 1.2 0 .2.7.1 1.5-.2 1.8zm-56.2-.9c.3.5-.1.9-.9.9s-1.2-.4-.9-.9c.3-.4.7-.8.9-.8.2 0 .6.4.9.8z"/><path d="M442.6 27.2c.3.5 1 .6 1.5.3 1.3-.9 1.1-1.2-.6-1.2-.8 0-1.2.4-.9.9zM411.5 32c-.3.5-.1 1 .4 1 .6 0 1.1-.5 1.1-1 0-.6-.2-1-.4-1-.3 0-.8.4-1.1 1zM620.5 32.1c-.4.6-.5 1.2-.2 1.5.2.3.7-.2 1-1.1.7-1.7.1-2-.8-.4zM408.3 33.7c-.7.3-1.3.8-1.3 1.3 0 1 2.4.7 2.8-.4.5-1.1-.1-1.4-1.5-.9zM390.6 37.8c-.3.5.1.9.9.9s1.5-.4 1.5-.9c0-.4-.4-.8-.9-.8-.6 0-1.2.4-1.5.8zM371.5 44c.3.5.8 1 1.1 1 .2 0 .4-.5.4-1 0-.6-.5-1-1.1-1-.5 0-.7.4-.4 1zM321 62c-.8.5-1.2 1.2-.9 1.5.4.3 1.2-.1 1.9-1 1.4-1.7 1.1-1.9-1-.5zM770 90.4c0 .2.7.7 1.6 1 .8.3 1.2.2.9-.4-.6-1-2.5-1.4-2.5-.6zM249.3 96.5c0 .8.4 1.2.9.9.5-.3.6-1 .3-1.5-.9-1.3-1.2-1.1-1.2.6zM788.5 101.9c-.3.5-.2 1.2.3 1.5.5.3.9-.1.9-.9 0-1.7-.3-1.9-1.2-.6zM791.5 104c-.3.5-.1 1 .4 1 .6 0 1.1-.5 1.1-1 0-.6-.2-1-.4-1-.3 0-.8.4-1.1 1zM147.7 148.5c-.4.8-.3 1.6.1 1.9.4.3.9-.4.9-1.5.2-2.3-.3-2.5-1-.4zM145 151.8c0 .5.7.9 1.5.9s1.2-.4.9-.9c-.3-.4-.9-.8-1.5-.8-.5 0-.9.4-.9.8zM871 167c0 .5.5 1 1.1 1 .5 0 .7-.5.4-1-.3-.6-.8-1-1.1-1-.2 0-.4.4-.4 1zM877.1 172.6c0 1.1.3 1.4.6.6.3-.7.2-1.6-.1-1.9-.3-.4-.6.2-.5 1.3zM114.6 220.7c-.6 1.4-.5 1.5.5.6.7-.7 1-1.5.7-1.8-.3-.3-.9.2-1.2 1.2zM945 260.5c-1.1 1.3-1 1.4.4.9.9-.3 1.6-1 1.6-1.5 0-1.3-.6-1.1-2 .6zM947.5 264c-.3.5-.1 1 .4 1 .6 0 1.1-.5 1.1-1 0-.6-.2-1-.4-1-.3 0-.8.4-1.1 1zM955.3 275.7c.4.6.2 1.3-.4 1.5-.7.2-.6.8.3 1.6 1.2.9 1.4.8 1.3-.8-.1-1.1-.5-2.3-1-2.7-.4-.5-.5-.3-.2.4zM74.7 280c-.9 1.1-1.2 2-.6 2 .5 0 .7.6.3 1.2-.4.7-.4 1 0 .6.4-.3.8-1 .8-1.5 0-.4.4-1.6.9-2.6 1.3-2.3.7-2.2-1.4.3zM44.4 344.4c.1.8.5 1.8.8 2.2.4.3.5-.1.4-1-.1-.8-.5-1.8-.8-2.2-.4-.3-.5.1-.4 1zM21 412c0 .5.5 1 1.1 1 .5 0 .7-.5.4-1-.3-.6-.8-1-1.1-1-.2 0-.4.4-.4 1zM1013.5 444c.3.5.8 1 1.1 1 .2 0 .4-.5.4-1 0-.6-.5-1-1.1-1-.5 0-.7.4-.4 1zM1018.3 495.5c0 .8.4 1.2.9.9.5-.3.6-1 .3-1.5-.9-1.3-1.2-1.1-1.2.6zM1018.3 525c-.1 1.1.2 2.2.6 2.4.4.3.7-.4.6-1.4-.2-2.7-1-3.3-1.2-1zM1018.2 557c-.9 1.5-.9 2.1.1 2.6.6.4.9.4.5-.1-.4-.4-.3-1.4.4-2.2.6-.7.9-1.5.7-1.8-.3-.2-1 .4-1.7 1.5zM1016.5 570c-.3.5-.2 1 .4 1 .5 0 1.3-.5 1.6-1 .3-.6.2-1-.4-1-.5 0-1.3.4-1.6 1zM1014.3 579c-.1 1.1.2 2.2.8 2.5.5.4.6-.2.2-1.2-.6-1.6-.5-1.7 1.3-.3 1.9 1.4 1.9 1.4 0-.8-2.3-2.7-2.1-2.6-2.3-.2zM20.7 619.6c.6.3 1 1.6.7 2.9-.5 2.9.9 4 2.6 2 .8-.9.8-1.5.2-1.5-.6 0-1.2.6-1.5 1.2-.3.7-.4.3-.4-.8.1-1.4.6-2 1.4-1.7.7.3 1.3 0 1.3-.7 0-.6-.4-.9-.9-.5-.5.3-1.2.1-1.6-.5-.3-.5-1.2-1-1.8-.9-.9 0-.9.2 0 .5zM21.5 628c.3.5.8 1 1.1 1 .2 0 .4-.5.4-1 0-.6-.5-1-1.1-1-.5 0-.7.4-.4 1zM1006.7 633.1c.7.7 1.5 1 1.8.7.3-.3-.2-.9-1.2-1.2-1.4-.6-1.5-.5-.6.5zM1003.5 641c-.3.5-.1 1 .4 1 .6 0 1.1-.5 1.1-1 0-.6-.2-1-.4-1-.3 0-.8.4-1.1 1zM1003 648c0 .5.5 1 1.1 1 .5 0 .7-.5.4-1-.3-.6-.8-1-1.1-1-.2 0-.4.4-.4 1zM35 670.1c0 .5.5.7 1 .4.6-.3 1-.8 1-1.1 0-.2-.4-.4-1-.4-.5 0-1 .5-1 1.1zM994.5 671c.3.5.8 1 1.1 1 .2 0 .4-.5.4-1 0-.6-.5-1-1.1-1-.5 0-.7.4-.4 1zM36.5 672.9c-.3.5-.2 1.2.3 1.5.5.3.9-.1.9-.9 0-1.7-.3-1.9-1.2-.6zM39.8 685.7c.7.3 1.6.2 1.9-.1.4-.3-.2-.6-1.3-.5-1.1 0-1.4.3-.6.6zM22.8 702.7c.7.3 1.6.2 1.9-.1.4-.3-.2-.6-1.3-.5-1.1 0-1.4.3-.6.6zM976.5 718.9c-.3.5-.1 1.2.5 1.6.5.3 1-.1 1-.9 0-1.8-.6-2.1-1.5-.7zM960.5 752c-.3.5-.2 1 .4 1 .5 0 1.3-.5 1.6-1 .3-.6.2-1-.4-1-.5 0-1.3.4-1.6 1zM955 761.4c-.9 1.2-.8 1.5.8 1.3 1.2 0 1.8-.6 1.5-1.4-.6-1.6-.8-1.6-2.3.1zM910.7 829.1c.7.7 1.5 1 1.8.7.3-.3-.2-.9-1.2-1.2-1.4-.6-1.5-.5-.6.5zM128 837.9c0 .6.4 1.3 1 1.6.6.3.7-.1.4-.9-.7-1.8-1.4-2.1-1.4-.7zM131.5 843c-.4.6-.4 1.4-.1 1.7.3.4.6 0 .6-.8 0-1.2.2-1.2 1 .1.5.8 1.2 1.2 1.5.9.3-.4-.1-1.2-.9-1.8-1-.9-1.6-.9-2.1-.1zM883.1 863.6c0 1.1.3 1.4.6.6.3-.7.2-1.6-.1-1.9-.3-.4-.6.2-.5 1.3zM874.3 870.7c.4.3.1 1.3-.6 2.2-1.1 1.4-1 1.4.5.2 1.6-1.2 1.6-3.1.1-3.1-.4 0-.3.3 0 .7zM869.2 874.2c-.7.7-1.2 1.7-1.2 2.2 0 .6.5.3 1.1-.8.9-1.5 1.3-1.6 2-.5.6.9.9 1 .9.2 0-1.8-1.5-2.4-2.8-1.1zM823.6 913.8c-.3.5.1.9.9.9s1.2-.4.9-.9c-.3-.4-.7-.8-.9-.8-.2 0-.6.4-.9.8zM217.1 921.6c0 1.1.3 1.4.6.6.3-.7.2-1.6-.1-1.9-.3-.4-.6.2-.5 1.3zM241 938c0 .5.5 1 1.1 1 .5 0 .7-.5.4-1-.3-.6-.8-1-1.1-1-.2 0-.4.4-.4 1zM793 938.1c0 .5.5.7 1 .4.6-.3 1-.8 1-1.1 0-.2-.4-.4-1-.4-.5 0-1 .5-1 1.1zM267 953.9c0 .5.5 1.3 1 1.6.6.3 1 .2 1-.4 0-.5-.4-1.3-1-1.6-.5-.3-1-.2-1 .4zM240 968.1c-1.2.8-1 .9.7.4 1.9-.5 2.2-.3 1.7 1.2-.5 1.4-.4 1.5.4.3 1.9-2.5 0-3.8-2.8-1.9zM725.3 974.9c0 1.1.5 1.8.9 1.5.4-.3.5-1.1.1-1.9-.7-2.1-1.2-1.9-1 .4zM327.4 983.2c-.4.7-.3.8.4.4s1.2-.2 1.2.3c0 .6.5 1.1 1 1.1 1.5 0 1.2-1.7-.5-2.3-.8-.4-1.7-.1-2.1.5zM644 1002c-1.3.8-1.2 1 .3 1 .9 0 1.7-.5 1.7-1 0-1.2-.1-1.2-2 0zM403.2 1007c0 1.4.2 1.9.5 1.2.2-.6.2-1.8 0-2.5-.3-.6-.5-.1-.5 1.3zM407.6 1008.7c-.6 1.4-.5 1.5.5.6.7-.7 1-1.5.7-1.8-.3-.3-.9.2-1.2 1.2zM612 1010c-1.2.8-1.3 1.1-.2 2.2s1.3 1 1-.2c-.2-.8.3-1.4 1-1.2.8.1 1.1-.2.7-.8-.7-1.2-.6-1.2-2.5 0zM422.6 1010.8c-.3.5.1.9.9.9s1.5-.4 1.5-.9c0-.4-.4-.8-.9-.8-.6 0-1.2.4-1.5.8zM601.5 1012c-.3.5-.1 1 .4 1 .6 0 1.1-.5 1.1-1 0-.6-.2-1-.4-1-.3 0-.8.4-1.1 1zM453.3 1015.3c-.3.4-.2 1.1.1 1.4.3.4.6.1.6-.6 0-.8.5-.9 1.8-.2s1.9.6 1.9-.2c0-1.4-3.6-1.7-4.4-.4zM583.5 1015c-.3.5-.1 1 .4 1 .6 0 1.1-.5 1.1-1 0-.6-.2-1-.4-1-.3 0-.8.4-1.1 1zM463 1016.2c0 .4.4.8.9.8.6 0 1.2-.4 1.5-.8.3-.5-.1-.9-.9-.9s-1.5.4-1.5.9zM568.5 1016c-.4.6-1 .8-1.5.5-.5-.3-1.1-.1-1.4.4-.4.5.2.8 1.1.6 1-.1 2.4.2 3.1.8.8.6 1.2.6 1.2-.2 0-.6-.6-1.1-1.2-1.1-.9 0-.8-.4.2-1 .9-.6 1-1 .3-1-.6 0-1.5.5-1.8 1zM472.5 1017.1c-.4.6-.5 1.2-.2 1.5.2.3.7-.2 1-1.1.7-1.7.1-2-.8-.4zM577 1018c0 .5.5 1 1.1 1 .5 0 .7-.5.4-1-.3-.6-.8-1-1.1-1-.2 0-.4.4-.4 1zM488.5 1020c-.3.6.1.7.9.4 1.8-.7 2.1-1.4.7-1.4-.6 0-1.3.4-1.6 1z"/></svg>